<svg xmlns="http://www.w3.org/2000/svg" xmlns:xlink="http://www.w3.org/1999/xlink" viewBox="0 0 818.4 834.39"><defs><style>.cls-1{fill:none;}.cls-2{fill:#43a3aa;}.cls-3{fill:#a5f7f9;}.cls-4{opacity:0.21;fill:url(#New_Pattern_2);}</style><pattern id="New_Pattern_2" data-name="New Pattern 2" width="121.28" height="72" patternUnits="userSpaceOnUse" viewBox="0 0 121.28 72"><g id="_Group_" data-name="&lt;Group&gt;"><rect id="_Path_" data-name="&lt;Path&gt;" class="cls-1" width="121.28" height="72"/><g id="_Group_2" data-name="&lt;Group&gt;"><g id="_Group_3" data-name="&lt;Group&gt;"><circle id="_Path_2" data-name="&lt;Path&gt;" class="cls-2" cx="181.86" cy="-35.99" r="60.67"/><path id="_Path_3" data-name="&lt;Path&gt;" class="cls-3" d="M241.81-35.8c-.28,25.08-15.85,48.12-39.66,56.69-24.24,8.72-52,.19-67.63-20.07a61.05,61.05,0,0,1-4.64-67,60.07,60.07,0,0,1,67.53-28c26.19,7.18,44.1,31.47,44.4,58.39,0,.32,1.45.08,1.45-.39-.3-26.6-17.74-50.57-43.4-58.24A62.57,62.57,0,0,0,134.8-75a61.35,61.35,0,0,0-4.33,72.63,61.74,61.74,0,0,0,64.34,26,61.92,61.92,0,0,0,48.44-59.76C243.26-36.49,241.81-36.27,241.81-35.8Z"/></g></g><g id="_Group_4" data-name="&lt;Group&gt;"><g id="_Group_5" data-name="&lt;Group&gt;"><circle id="_Path_4" data-name="&lt;Path&gt;" class="cls-2" cx="60.58" cy="-35.99" r="60.67"/><path id="_Path_5" data-name="&lt;Path&gt;" class="cls-3" d="M120.52-35.8c-.28,25.08-15.85,48.12-39.66,56.69-24.24,8.72-52,.19-67.63-20.07a61.05,61.05,0,0,1-4.64-67,60.07,60.07,0,0,1,67.53-28c26.19,7.18,44.1,31.47,44.4,58.39,0,.32,1.45.08,1.45-.39-.3-26.6-17.74-50.57-43.4-58.24A62.57,62.57,0,0,0,13.52-75,61.35,61.35,0,0,0,9.19-2.42a61.74,61.74,0,0,0,64.34,26A61.92,61.92,0,0,0,122-36.19C122-36.49,120.53-36.27,120.52-35.8Z"/></g><g id="_Group_6" data-name="&lt;Group&gt;"><path id="_Path_6" data-name="&lt;Path&gt;" class="cls-2" d="M60.53-96.65c26.39,0,60.75,24.11,60.75,60.67s-31.17,60.4-60.75,60.4S1.54-3.13,1.54-36s32.54-55.1,59.87-55.1S117-66.71,117-36.12s-26.49,56-55.63,56S6.84-3.66,6.84-36.12,35.19-87.64,61.41-87.64,113.87-61.39,113.87-36,87.28,16.21,61.41,16.21,10.81-9.9,10.81-36s25.52-49,50.6-49,49.27,28.63,49.27,49S86.1,13,61.41,13,14.52-13.3,14.52-36s25.7-46.1,46.89-46.1,46.36,25.14,46.36,46S81.62,9.58,61.41,9.58,18.5-12.66,18.5-36.12s24-42.25,42.92-42.25,42.65,18,42.65,42.39S78.36,5.08,61.41,5.08,22.2-11.54,22.47-36C22.64-51.11,38-73.6,61.41-73.6A37.86,37.86,0,0,1,99.56-36C99.56-17.53,76.42,1.1,61.41,1.1S25.38-16.38,27.5-36c.91-8.43,10.86-31.79,33.91-31.79S94.53-47.38,94.53-36s-17,30.2-33.11,30.2S32.54-23,32.54-36,42.85-61.42,61.41-61.42A26.36,26.36,0,0,1,88.43-36c0,10.07-11.39,19.87-27,19.87S40-24.59,40-36.12,50.29-52.67,61.41-52.67,80.75-42.34,80.75-36.12,74.13-24.06,61.41-24.06,48.7-31,48.7-36.12s5.83-6.76,12.72-6.76,9.54,3.44,9.54,6.89-6.62,3.44-9.54,3.44"/><path id="_Path_7" data-name="&lt;Path&gt;" class="cls-3" d="M60.07-96.33c17.27.21,34.05,9.18,45.42,21.92a58.59,58.59,0,0,1,12.7,55.5C112.53.45,96.65,15.8,77.43,21.61c-20.3,6.14-41.29-.24-56.31-14.84C6.47-7.48-1.66-29.37,4.14-49.5,9.71-68.84,27-83.22,46-88.6c42.11-12,83.07,32,66.31,73C103.88,4.92,83,20.1,60.55,19.58A54.62,54.62,0,0,1,14-9.66c-9.25-17.73-8.8-40.57,3.59-56.68,12.52-16.27,35.86-25.11,55.8-19.08,19.69,6,37.33,24.71,39.56,45.55C115.24-18.2,98.63,2.89,79.77,11.65c-22.6,10.5-47.06-1.19-59.85-21.06C8.1-27.79,9.26-50.25,23.89-66.72c7.88-8.88,18.75-15.53,30.56-17.42,11.16-1.79,21.86,1.65,31,8.1,14.06,10,27.86,28.65,23.78,46.84C104.76-9.53,85,11,64.32,12.6c-21,1.59-39.95-16.2-46.56-35-7.17-20.35,3.92-40.4,21.08-51.75,9.86-6.52,21.32-9.68,32.78-5.7,9.38,3.26,17.68,9.74,24,17.28,6,7.07,11,16,11.38,25.46.41,9.6-4.53,18.84-10.41,26.09C90.07-2.93,81.31,4.12,71.41,7.52c-11,3.78-22.17.49-31.35-6.15C23.25-10.81,13.4-33.5,23.41-53c9.55-18.63,32-30.33,52.06-21.85,17.68,7.48,31.32,26.54,27.11,46.22C98.73-10.7,79,5.73,60.34,4.71c-18.52-1-34.75-17.87-36.87-35.88C21.16-50.7,37.64-70.73,57-73c20.8-2.46,39.92,13.45,41.7,34.22.87,10.22-4.24,19.33-11.26,26.41-7.59,7.66-19,15-30.21,12.66C40.71-3.2,24.47-21.51,28.77-39c4.42-18,21.15-32.06,40.25-27.5,13.68,3.27,28.06,19.4,24.27,34.39C90.93-22.8,82.61-14.4,74.43-9.81,63.24-3.52,51.11-6.2,42.5-15.3c-6.28-6.63-10.56-16.1-8.82-25.34C35.9-52.43,46.28-60,57.92-61c10.51-.87,20.58,3.41,26.07,12.6C87.77-42,89.31-34,85.09-27.52c-7.09,10.94-25.32,14.71-36.44,8C41.74-23.7,39-33.77,41.43-41.27c4.09-12.56,22.66-13.94,31.73-6.47,7.13,5.87,10.07,16,.34,21-8.28,4.22-23.38,4.36-24-7.38-.12-2.15,0-4.09,1.42-5.84,2.81-3.55,13.29-3.47,16.79-.8,1.46,1.11,2.77,3,2.47,4.91-.51,3.32-5.76,3-8.42,3-.43,0-1.57.64-.61.64,2.73,0,7,.2,9.26-1.69s1.12-5.29-.92-7.07C65-44.84,51-44.5,48.38-38.13c-1.17,2.82-.5,7.68,1.19,10.18,2.3,3.4,6.77,4.08,10.56,4.19,7.19.22,18.08-1.63,20.84-9.55,3.11-8.93-7.78-17.76-15.44-19.29s-17.93.74-23,7c-5.54,6.81-4,18.94,2.34,24.79,7,6.47,19.15,6.06,27.64,3.24s17-9.72,16.65-19.4C88.81-46,82.85-54.65,75-58.71c-17.1-8.82-42.71,1.57-43.14,22.35-.22,10.68,7,21.51,15.9,27,8.1,5,17.37,4.9,25.78.76C82.44-13,91-21.33,94.27-30.91c2.61-7.69-.63-16.46-5-22.87-10.84-15.86-33.78-19-48.5-6.66a42.36,42.36,0,0,0-13.25,21c-2.57,9.53,1,19.34,7.16,26.72S50.82,1.4,60.95,1.42c8.88,0,17.64-5,24.22-10.58,8.1-6.83,15.23-16.61,15.11-27.62A38.36,38.36,0,0,0,86.71-65C69.94-79.26,45-75.43,31.37-59c-6.06,7.28-10.16,16.54-9.55,26.13.74,11.57,6.82,22.16,15.83,29.33C52.87,8.55,71.42,7.18,86.74-4c8.68-6.32,15.63-15.46,17.52-26.2,2-11.17-1.76-22.54-8.84-31.22C82.5-77.27,61.55-83.29,43.15-73.68,33.7-68.74,25.53-60.76,21.11-51c-5.26,11.63-3.82,24.65,2.32,35.66C33.74,3.16,55.08,15.58,75.58,6.45c18.26-8.13,37.7-29.66,31.71-51C101.76-64.33,79.54-84.71,58-82.17,37.26-79.73,16.2-60.07,14-39.08,11.59-16.49,31.25,7.59,52.86,12.42c21.18,4.73,41.59-10.53,52-27.91,5.4-9,8.2-19.15,5.27-29.5-3.16-11.17-10.67-21.25-19.5-28.61C82.31-80.51,72-85.48,61-85.3c-10.57.17-20.93,4.22-29.4,10.42-9.54,7-17.17,17-20.17,28.57C8.31-34.19,11-21.52,17.34-10.87c11.72,19.8,35.12,32.68,57.87,25,21.3-7.23,40.94-29.53,39.29-53-1.72-24.37-25-46.8-49.11-48.9-19.39-1.69-40.23,8-51.06,24.2C.83-43.44,4.66-15.1,20.74,2.47A54.81,54.81,0,0,0,78.9,17.13c21.38-7.51,37.56-27.77,38.79-50.59C119-58.29,101.25-80.88,78.16-88.64c-19.53-6.56-41.35-.45-57,12.34C2.25-60.84-4.21-36.08,5.45-13.46c9.13,21.37,30.92,38.12,54.62,38.2,20.13.07,40.07-10.52,51.5-27a58.88,58.88,0,0,0-.3-67.08C100-85.28,80.73-96.73,61-97c-.34,0-1.65.63-.93.64Z"/></g></g><g id="_Group_7" data-name="&lt;Group&gt;"><g id="_Group_8" data-name="&lt;Group&gt;"><path id="_Path_8" data-name="&lt;Path&gt;" class="cls-3" d="M-.76-35.8C-1-10.72-16.61,12.32-40.42,20.89c-24.24,8.72-52,.19-67.63-20.07a61.05,61.05,0,0,1-4.64-67,60.07,60.07,0,0,1,67.53-28C-19-87-1.07-62.72-.76-35.8c0,.32,1.45.08,1.45-.39-.3-26.6-17.74-50.57-43.4-58.24A62.57,62.57,0,0,0-107.77-75a61.35,61.35,0,0,0-4.33,72.63,61.74,61.74,0,0,0,64.34,26A61.92,61.92,0,0,0,.69-36.19C.69-36.49-.76-36.27-.76-35.8Z"/></g><g id="_Group_9" data-name="&lt;Group&gt;"><path id="_Path_9" data-name="&lt;Path&gt;" class="cls-3" d="M-61.22-96.33c17.27.21,34.05,9.18,45.42,21.92A58.59,58.59,0,0,1-3.1-18.92C-8.75.45-24.63,15.8-43.86,21.61c-20.3,6.14-41.29-.24-56.31-14.84-14.65-14.25-22.78-36.14-17-56.27,5.57-19.34,22.86-33.72,41.82-39.1,42.11-12,83.07,32,66.31,73C-17.4,4.92-38.26,20.1-60.73,19.58A54.62,54.62,0,0,1-107.32-9.66c-9.25-17.73-8.8-40.57,3.59-56.68,12.52-16.27,35.86-25.11,55.8-19.08,19.69,6,37.33,24.71,39.56,45.55C-6-18.2-22.66,2.89-41.51,11.65c-22.6,10.5-47.06-1.19-59.85-21.06-11.83-18.38-10.66-40.83,4-57.31,7.88-8.88,18.75-15.53,30.56-17.42,11.16-1.79,21.86,1.65,31,8.1C-21.82-66.07-8-47.39-12.1-29.2-16.52-9.53-36.32,11-57,12.6c-21,1.59-39.95-16.2-46.56-35-7.17-20.35,3.92-40.4,21.08-51.75,9.86-6.52,21.32-9.68,32.78-5.7,9.38,3.26,17.68,9.74,24,17.28,6,7.07,11,16,11.38,25.46.41,9.6-4.53,18.84-10.41,26.09C-31.22-2.93-40,4.12-49.87,7.52-60.89,11.3-72,8-81.22,1.36-98-10.81-107.88-33.5-97.88-53c9.55-18.63,32-30.33,52.06-21.85C-28.13-67.4-14.5-48.34-18.71-28.66c-3.84,18-23.53,34.39-42.24,33.37-18.52-1-34.75-17.87-36.87-35.88C-100.12-50.7-83.65-70.73-64.28-73c20.8-2.46,39.92,13.45,41.7,34.22.87,10.22-4.24,19.33-11.26,26.41C-41.43-4.74-52.8,2.63-64,.27-80.58-3.2-96.81-21.51-92.52-39c4.42-18,21.16-32.06,40.25-27.5C-38.58-63.27-24.21-47.14-28-32.15-30.35-22.8-38.67-14.4-46.86-9.81-58-3.52-70.17-6.2-78.78-15.3c-6.28-6.63-10.56-16.1-8.82-25.34C-85.39-52.43-75-60-63.37-61c10.51-.87,20.58,3.41,26.07,12.6C-33.51-42-32-34-36.19-27.52c-7.09,10.94-25.32,14.71-36.44,8-6.92-4.18-9.67-14.25-7.23-21.75,4.09-12.56,22.66-13.94,31.73-6.47,7.13,5.87,10.07,16,.34,21-8.28,4.22-23.38,4.36-24-7.38-.12-2.15,0-4.09,1.42-5.84,2.81-3.55,13.29-3.47,16.79-.8,1.46,1.11,2.77,3,2.47,4.91-.51,3.32-5.76,3-8.42,3-.43,0-1.57.64-.61.64,2.73,0,7,.2,9.26-1.69s1.12-5.29-.92-7.07c-4.43-3.86-18.44-3.52-21.07,2.84-1.17,2.82-.5,7.68,1.19,10.18,2.3,3.4,6.77,4.08,10.56,4.19,7.19.22,18.08-1.63,20.84-9.55,3.11-8.93-7.78-17.76-15.44-19.29s-17.93.74-23,7c-5.54,6.81-4,18.94,2.34,24.79,7,6.47,19.15,6.06,27.64,3.24s17-9.72,16.65-19.4c-.33-9-6.29-17.64-14.18-21.71C-63.43-67.53-89-57.14-89.46-36.36c-.22,10.68,7,21.51,15.9,27,8.1,5,17.37,4.9,25.78.76C-38.84-13-30.26-21.33-27-30.91c2.61-7.69-.63-16.46-5-22.87-10.84-15.86-33.78-19-48.5-6.66a42.36,42.36,0,0,0-13.25,21c-2.57,9.53,1,19.34,7.16,26.72S-70.47,1.4-60.34,1.42c8.88,0,17.64-5,24.22-10.58C-28-16-20.89-25.76-21-36.78A38.36,38.36,0,0,0-34.58-65c-16.77-14.22-41.68-10.4-55.34,6-6.06,7.28-10.16,16.54-9.55,26.13.74,11.57,6.82,22.16,15.83,29.33C-68.41,8.55-49.87,7.18-34.55-4c8.68-6.32,15.63-15.46,17.52-26.2,2-11.17-1.76-22.54-8.84-31.22-12.93-15.87-33.88-21.9-52.28-12.28-9.45,4.94-17.62,12.92-22,22.69-5.26,11.63-3.82,24.65,2.32,35.66C-87.55,3.16-66.2,15.58-45.71,6.45-27.45-1.68-8-23.2-14-44.56c-5.54-19.76-27.75-40.14-49.3-37.61-20.73,2.44-41.79,22.09-44,43.09C-109.69-16.49-90,7.59-68.43,12.42c21.18,4.73,41.59-10.53,52-27.91,5.4-9,8.2-19.15,5.27-29.5-3.16-11.17-10.67-21.25-19.5-28.61C-39-80.51-49.29-85.48-60.25-85.3c-10.57.17-20.93,4.22-29.4,10.42-9.54,7-17.17,17-20.17,28.57-3.15,12.11-.42,24.79,5.88,35.43,11.72,19.8,35.12,32.68,57.87,25,21.3-7.23,40.94-29.53,39.29-53-1.72-24.37-25-46.8-49.11-48.9-19.39-1.69-40.23,8-51.06,24.2-13.5,20.16-9.66,48.5,6.41,66.07A54.8,54.8,0,0,0-42.38,17.13C-21,9.62-4.82-10.64-3.59-33.46-2.25-58.29-20-80.88-43.13-88.64c-19.53-6.56-41.35-.45-57,12.34C-119-60.84-125.49-36.08-115.84-13.46c9.13,21.37,30.92,38.12,54.62,38.2,20.13.07,40.07-10.52,51.5-27A58.88,58.88,0,0,0-10-69.38C-21.31-85.28-40.55-96.73-60.29-97c-.34,0-1.65.63-.93.64Z"/></g></g><g id="_Group_10" data-name="&lt;Group&gt;"><g id="_Group_11" data-name="&lt;Group&gt;"><circle id="_Path_10" data-name="&lt;Path&gt;" class="cls-2" cx="121.22" cy="0.01" r="60.67"/><path id="_Path_11" data-name="&lt;Path&gt;" class="cls-3" d="M181.16.2c-.28,25.08-15.85,48.12-39.66,56.69-24.24,8.72-52,.19-67.63-20.07a61.05,61.05,0,0,1-4.64-67,60.07,60.07,0,0,1,67.53-28C162.95-51,180.86-26.72,181.16.2c0,.32,1.45.08,1.45-.39-.3-26.6-17.74-50.57-43.4-58.24A62.57,62.57,0,0,0,74.16-39a61.35,61.35,0,0,0-4.33,72.63,61.74,61.74,0,0,0,64.34,26A61.92,61.92,0,0,0,182.61-.19C182.62-.49,181.17-.27,181.16.2Z"/></g><g id="_Group_12" data-name="&lt;Group&gt;"><path id="_Path_12" data-name="&lt;Path&gt;" class="cls-2" d="M121.17-60.65c26.39,0,60.75,24.11,60.75,60.67s-31.17,60.4-60.75,60.4-59-27.55-59-60.4,32.54-55.1,59.87-55.1,55.63,24.37,55.63,55-26.49,56-55.63,56S67.48,32.34,67.48-.12s28.35-51.53,54.57-51.53S174.51-25.39,174.51,0s-26.59,52.19-52.45,52.19S71.46,26.1,71.46,0,97-49,122.06-49s49.27,28.63,49.27,49-24.59,49-49.27,49S75.16,22.7,75.16,0s25.7-46.1,46.89-46.1,46.36,25.14,46.36,46-26.16,45.7-46.36,45.7S79.14,23.34,79.14-.12s24-42.25,42.92-42.25,42.65,18,42.65,42.39S139,41.08,122.06,41.08,82.84,24.46,83.11,0c.17-15.13,15.57-37.62,38.94-37.62A37.86,37.86,0,0,1,160.2,0c0,18.45-23.14,37.09-38.15,37.09S86,19.62,88.15,0C89.06-8.41,99-31.77,122.06-31.77S155.17-11.38,155.17,0s-17,30.2-33.11,30.2S93.18,13,93.18,0s10.31-25.43,28.88-25.43A26.36,26.36,0,0,1,149.08,0c0,10.07-11.39,19.87-27,19.87s-21.46-8.48-21.46-20,10.33-16.56,21.46-16.56S141.39-6.34,141.39-.12s-6.62,12.05-19.34,12.05S109.34,5,109.34-.12s5.83-6.76,12.72-6.76,9.54,3.44,9.54,6.89S125,3.46,122.06,3.46"/><path id="_Path_13" data-name="&lt;Path&gt;" class="cls-3" d="M120.71-60.33c17.27.21,34.05,9.18,45.42,21.92a58.59,58.59,0,0,1,12.7,55.5c-5.65,19.37-21.53,34.71-40.76,40.53-20.3,6.14-41.29-.24-56.31-14.84C67.11,28.52,59,6.63,64.78-13.5c5.57-19.34,22.86-33.72,41.82-39.1,42.11-12,83.07,32,66.31,73-8.39,20.51-29.25,35.7-51.72,35.17A54.62,54.62,0,0,1,74.61,26.34c-9.25-17.73-8.8-40.57,3.59-56.68C90.72-46.62,114.06-55.45,134-49.42c19.69,6,37.33,24.71,39.56,45.55,2.32,21.67-14.29,42.77-33.15,51.53-22.6,10.5-47.06-1.19-59.85-21.06-11.83-18.38-10.66-40.83,4-57.31,7.88-8.88,18.75-15.53,30.56-17.42,11.16-1.79,21.86,1.65,31,8.1,14.06,10,27.86,28.65,23.78,46.84C165.41,26.47,145.61,47,125,48.6c-21,1.59-39.95-16.2-46.56-35-7.17-20.35,3.92-40.4,21.08-51.75,9.86-6.52,21.32-9.68,32.78-5.7,9.38,3.26,17.68,9.74,24,17.28,6,7.07,11,16,11.38,25.46.41,9.6-4.53,18.84-10.41,26.09-6.54,8.06-15.3,15.11-25.2,18.51-11,3.78-22.17.49-31.35-6.15C83.89,25.19,74,2.5,84.05-17c9.55-18.63,32-30.33,52.06-21.85,17.68,7.48,31.32,26.54,27.11,46.22-3.84,18-23.53,34.39-42.24,33.37-18.52-1-34.75-17.87-36.87-35.88C81.8-14.7,98.28-34.73,117.65-37c20.8-2.46,39.92,13.45,41.7,34.22.87,10.22-4.24,19.33-11.26,26.41-7.59,7.66-19,15-30.21,12.66C101.35,32.8,85.11,14.49,89.41-3c4.42-18,21.15-32.06,40.25-27.5,13.68,3.27,28.06,19.4,24.27,34.39-2.36,9.36-10.68,17.75-18.86,22.35-11.19,6.29-23.32,3.61-31.93-5.49C96.87,14.07,92.58,4.6,94.32-4.64,96.54-16.43,106.92-24,118.56-25c10.51-.87,20.58,3.41,26.07,12.6C148.41-6,150,2,145.74,8.48c-7.09,10.94-25.32,14.71-36.44,8-6.92-4.18-9.67-14.25-7.23-21.75,4.09-12.56,22.66-13.94,31.73-6.47,7.13,5.87,10.07,16,.34,21-8.28,4.22-23.38,4.36-24-7.38-.12-2.15,0-4.09,1.42-5.84,2.81-3.55,13.29-3.47,16.79-.8,1.46,1.11,2.77,3,2.47,4.91-.51,3.32-5.76,3-8.42,3-.43,0-1.57.64-.61.64,2.73,0,7,.2,9.26-1.69s1.12-5.29-.92-7.07C125.66-8.84,111.65-8.5,109-2.13,107.85.69,108.52,5.55,110.2,8c2.3,3.4,6.77,4.08,10.56,4.19,7.19.22,18.08-1.63,20.84-9.55,3.11-8.93-7.78-17.76-15.44-19.29s-17.93.74-23,7c-5.54,6.81-4,18.94,2.34,24.79,7,6.47,19.15,6.06,27.64,3.24s17-9.72,16.65-19.4c-.33-9-6.29-17.64-14.18-21.71C118.5-31.53,92.89-21.14,92.47-.36c-.22,10.68,7,21.51,15.9,27,8.1,5,17.37,4.9,25.78.76,8.93-4.4,17.51-12.7,20.77-22.28,2.61-7.69-.63-16.46-5-22.87-10.84-15.86-33.78-19-48.5-6.66a42.36,42.36,0,0,0-13.25,21c-2.57,9.53,1,19.34,7.16,26.72s16.14,14.15,26.27,14.18c8.88,0,17.64-5,24.22-10.58C153.91,20,161,10.24,160.92-.78A38.36,38.36,0,0,0,147.35-29C130.58-43.26,105.67-39.43,92-23,85.95-15.75,81.85-6.49,82.46,3.11c.74,11.57,6.82,22.16,15.83,29.33,15.23,12.12,33.77,10.75,49.09-.4,8.68-6.32,15.63-15.46,17.52-26.2,2-11.17-1.76-22.54-8.84-31.22-12.93-15.87-33.88-21.9-52.28-12.28-9.45,4.94-17.62,12.92-22,22.69C76.49-3.36,77.93,9.66,84.08,20.67c10.3,18.48,31.65,30.91,52.15,21.78,18.26-8.13,37.7-29.66,31.71-51-5.54-19.76-27.75-40.14-49.3-37.61-20.73,2.44-41.79,22.09-44,43.09-2.39,22.59,17.27,46.67,38.88,51.5,21.18,4.73,41.59-10.53,52-27.91,5.4-9,8.2-19.15,5.27-29.5-3.16-11.17-10.67-21.25-19.5-28.61-8.28-6.91-18.59-11.88-29.56-11.7-10.57.17-20.93,4.22-29.4,10.42-9.54,7-17.17,17-20.17,28.57C68.95,1.81,71.68,14.48,78,25.13c11.72,19.8,35.12,32.68,57.87,25,21.3-7.23,40.94-29.53,39.29-53-1.72-24.37-25-46.8-49.11-48.9-19.39-1.69-40.23,8-51.06,24.2-13.5,20.16-9.66,48.5,6.41,66.07a54.81,54.81,0,0,0,58.16,14.66c21.38-7.51,37.56-27.77,38.79-50.59,1.34-24.83-16.45-47.43-39.54-55.19-19.53-6.56-41.35-.45-57,12.34C62.9-24.84,56.43-.08,66.09,22.53,75.22,43.91,97,60.66,120.71,60.74c20.13.07,40.07-10.52,51.5-27a58.88,58.88,0,0,0-.3-67.08C160.62-49.28,141.37-60.73,121.64-61c-.34,0-1.65.63-.93.64Z"/></g></g><g id="_Group_13" data-name="&lt;Group&gt;"><g id="_Group_14" data-name="&lt;Group&gt;"><circle id="_Path_14" data-name="&lt;Path&gt;" class="cls-2" cx="-0.06" cy="0.01" r="60.67"/><path id="_Path_15" data-name="&lt;Path&gt;" class="cls-3" d="M59.88.2C59.6,25.28,44,48.32,20.22,56.89c-24.24,8.72-52,.19-67.63-20.07a61.05,61.05,0,0,1-4.64-67,60.07,60.07,0,0,1,67.53-28C41.66-51,59.58-26.72,59.88.2c0,.32,1.45.08,1.45-.39-.3-26.6-17.74-50.57-43.4-58.24A62.57,62.57,0,0,0-47.12-39a61.35,61.35,0,0,0-4.33,72.63,61.74,61.74,0,0,0,64.34,26A61.92,61.92,0,0,0,61.33-.19C61.33-.49,59.88-.27,59.88.2Z"/></g><g id="_Group_15" data-name="&lt;Group&gt;"><path id="_Path_16" data-name="&lt;Path&gt;" class="cls-2" d="M-.11-60.65C26.27-60.65,60.64-36.54,60.64,0S29.47,60.42-.11,60.42s-59-27.55-59-60.4S-26.56-55.09.77-55.09,56.4-30.71,56.4-.12s-26.49,56-55.63,56S-53.8,32.34-53.8-.12-25.46-51.64.77-51.64,53.22-25.39,53.22,0,26.64,52.21.77,52.21-49.83,26.1-49.83,0-24.31-49,.77-49,50-20.37,50,0,25.45,49,.77,49-46.12,22.7-46.12,0s25.7-46.1,46.89-46.1,46.36,25.14,46.36,46S21,45.58.77,45.58-42.15,23.34-42.15-.12s24-42.25,42.92-42.25S43.42-24.38,43.42,0,17.72,41.08.77,41.08-38.44,24.46-38.17,0C-38-15.11-22.6-37.6.77-37.6A37.86,37.86,0,0,1,38.92,0C38.92,18.47,15.78,37.1.77,37.1S-35.26,19.62-33.14,0C-32.23-8.41-22.28-31.77.77-31.77S33.89-11.38,33.89,0s-17,30.2-33.11,30.2S-28.11,13-28.11,0-17.79-25.42.77-25.42A26.36,26.36,0,0,1,27.79,0c0,10.07-11.39,19.87-27,19.87s-21.46-8.48-21.46-20S-10.36-16.67.77-16.67,20.11-6.34,20.11-.12,13.49,11.94.77,11.94-11.95,5-11.95-.12-6.12-6.87.77-6.87,10.31-3.43,10.31,0,3.68,3.46.77,3.46"/><path id="_Path_17" data-name="&lt;Path&gt;" class="cls-3" d="M-.58-60.33c17.27.21,34.05,9.18,45.42,21.92a58.59,58.59,0,0,1,12.7,55.5C51.89,36.45,36,51.8,16.78,57.61c-20.3,6.14-41.29-.24-56.31-14.84C-54.18,28.52-62.3,6.63-56.5-13.5c5.57-19.34,22.86-33.72,41.82-39.1,42.11-12,83.07,32,66.31,73C43.24,40.92,22.38,56.1-.09,55.58A54.62,54.62,0,0,1-46.68,26.34c-9.25-17.73-8.8-40.57,3.59-56.68,12.52-16.27,35.86-25.11,55.8-19.08C32.41-43.47,50-24.71,52.28-3.88,54.6,17.8,38,38.89,19.13,47.65c-22.6,10.5-47.06-1.19-59.85-21.06-11.83-18.38-10.66-40.83,4-57.31C-28.87-39.6-18-46.25-6.19-48.14,5-49.93,15.67-46.49,24.76-40c14.06,10,27.86,28.65,23.78,46.84C44.12,26.47,24.32,47,3.67,48.6c-21,1.59-39.95-16.2-46.56-35C-50.06-6.72-39-26.77-21.81-38.12-11.94-44.64-.49-47.8,11-43.82c9.38,3.26,17.68,9.74,24,17.28,6,7.07,11,16,11.38,25.46C46.79,8.51,41.86,17.76,36,25c-6.54,8.06-15.3,15.11-25.2,18.51-11,3.78-22.17.49-31.35-6.15C-37.39,25.19-47.24,2.5-37.23-17c9.55-18.63,32-30.33,52.06-21.85C32.51-31.4,46.15-12.34,41.94,7.34,38.09,25.3,18.4,41.73-.31,40.71c-18.52-1-34.75-17.87-36.87-35.88C-39.48-14.7-23-34.73-3.64-37c20.8-2.46,39.92,13.45,41.7,34.22C38.93,7.42,33.82,16.53,26.8,23.6c-7.59,7.66-19,15-30.21,12.66C-19.93,32.8-36.17,14.49-31.87-3c4.42-18,21.15-32.06,40.25-27.5,13.68,3.27,28.06,19.4,24.27,34.39C30.29,13.2,22,21.6,13.79,26.19,2.59,32.48-9.53,29.8-18.14,20.7-24.42,14.07-28.7,4.6-27-4.64-24.75-16.43-14.37-24-2.73-25c10.51-.87,20.58,3.41,26.07,12.6C27.13-6,28.67,2,24.45,8.48,17.36,19.41-.87,23.19-12,16.48c-6.92-4.18-9.67-14.25-7.23-21.75,4.09-12.56,22.66-13.94,31.73-6.47,7.13,5.87,10.07,16,.34,21-8.28,4.22-23.38,4.36-24-7.38-.12-2.15,0-4.09,1.42-5.84C-7-7.51,3.52-7.43,7-4.77,8.49-3.66,9.79-1.8,9.49.14c-.51,3.32-5.76,3-8.42,3-.43,0-1.57.64-.61.64,2.73,0,7,.2,9.26-1.69S10.84-3.2,8.8-5C4.37-8.84-9.64-8.5-12.27-2.13-13.43.69-12.77,5.55-11.08,8c2.3,3.4,6.77,4.08,10.56,4.19,7.19.22,18.08-1.63,20.84-9.55,3.11-8.93-7.78-17.76-15.44-19.29s-17.93.74-23,7c-5.54,6.81-4,18.94,2.34,24.79,7,6.47,19.15,6.06,27.64,3.24S28.85,8.67,28.5-1c-.33-9-6.29-17.64-14.18-21.71C-2.78-31.53-28.39-21.14-28.82-.36c-.22,10.68,7,21.51,15.9,27,8.1,5,17.37,4.9,25.78.76C21.8,23,30.38,14.67,33.63,5.09c2.61-7.69-.63-16.46-5-22.87-10.84-15.86-33.78-19-48.5-6.66a42.36,42.36,0,0,0-13.25,21c-2.57,9.53,1,19.34,7.16,26.72S-9.82,37.4.31,37.42c8.88,0,17.64-5,24.22-10.58C32.62,20,39.76,10.24,39.63-.78A38.36,38.36,0,0,0,26.06-29C9.29-43.26-15.62-39.43-29.28-23c-6.06,7.28-10.16,16.54-9.55,26.13C-38.08,14.68-32,25.26-23,32.43-7.77,44.55,10.78,43.18,26.09,32c8.68-6.32,15.63-15.46,17.52-26.2,2-11.17-1.77-22.54-8.84-31.22C21.86-41.27.9-47.29-17.49-37.68c-9.45,4.94-17.62,12.92-22,22.69-5.26,11.63-3.82,24.65,2.32,35.66C-26.9,39.16-5.56,51.58,14.94,42.45c18.26-8.13,37.7-29.66,31.71-51C41.11-28.33,18.9-48.71-2.65-46.17c-20.73,2.44-41.79,22.09-44,43.09C-49.05,19.51-29.4,43.59-7.78,48.42c21.18,4.73,41.59-10.53,52-27.91,5.4-9,8.2-19.15,5.27-29.5C46.29-20.15,38.78-30.23,29.95-37.6,21.67-44.51,11.35-49.48.39-49.3c-10.57.17-20.93,4.22-29.4,10.42-9.54,7-17.17,17-20.17,28.57-3.15,12.11-.42,24.79,5.88,35.43,11.72,19.8,35.12,32.68,57.87,25,21.3-7.23,40.94-29.53,39.29-53-1.72-24.37-25-46.8-49.11-48.9-19.39-1.69-40.23,8-51.06,24.2C-59.81-7.44-56,20.9-39.9,38.47A54.81,54.81,0,0,0,18.26,53.13C39.64,45.62,55.82,25.36,57.05,2.54,58.39-22.29,40.6-44.88,17.52-52.64c-19.53-6.56-41.35-.45-57,12.34C-58.39-24.84-64.85-.08-55.19,22.53c9.13,21.37,30.92,38.12,54.62,38.2,20.13.07,40.07-10.52,51.5-27a58.88,58.88,0,0,0-.3-67.08C39.33-49.28,20.09-60.73.35-61c-.34,0-1.65.63-.93.64Z"/></g></g><g id="_Group_16" data-name="&lt;Group&gt;"><g id="_Group_17" data-name="&lt;Group&gt;"><circle id="_Path_18" data-name="&lt;Path&gt;" class="cls-2" cx="181.86" cy="36.01" r="60.67"/><path id="_Path_19" data-name="&lt;Path&gt;" class="cls-3" d="M241.81,36.2c-.28,25.08-15.85,48.12-39.66,56.69-24.24,8.72-52,.19-67.63-20.07a61.05,61.05,0,0,1-4.64-67,60.07,60.07,0,0,1,67.53-28C223.59-15,241.5,9.28,241.81,36.2c0,.32,1.45.08,1.45-.39-.3-26.6-17.74-50.57-43.4-58.24A62.57,62.57,0,0,0,134.8-3a61.35,61.35,0,0,0-4.33,72.63A61.56,61.56,0,0,0,243.26,35.81C243.26,35.51,241.81,35.73,241.81,36.2Z"/></g></g><g id="_Group_18" data-name="&lt;Group&gt;"><g id="_Group_19" data-name="&lt;Group&gt;"><circle id="_Path_20" data-name="&lt;Path&gt;" class="cls-2" cx="60.58" cy="36.01" r="60.67"/><path id="_Path_21" data-name="&lt;Path&gt;" class="cls-3" d="M120.52,36.2c-.28,25.08-15.85,48.12-39.66,56.69-24.24,8.72-52,.19-67.63-20.07a61.05,61.05,0,0,1-4.64-67,60.07,60.07,0,0,1,67.53-28c26.19,7.18,44.1,31.47,44.4,58.39,0,.32,1.45.08,1.45-.39-.3-26.6-17.74-50.57-43.4-58.24A62.57,62.57,0,0,0,13.52-3,61.35,61.35,0,0,0,9.19,69.58,61.56,61.56,0,0,0,122,35.81C122,35.51,120.53,35.73,120.52,36.2Z"/></g><g id="_Group_20" data-name="&lt;Group&gt;"><path id="_Path_22" data-name="&lt;Path&gt;" class="cls-2" d="M60.53-24.65c26.39,0,60.75,24.11,60.75,60.67s-31.17,60.4-60.75,60.4-59-27.55-59-60.4,32.54-55.1,59.87-55.1S117,5.29,117,35.88s-26.49,56-55.63,56S6.84,68.34,6.84,35.88,35.19-15.64,61.41-15.64,113.87,10.61,113.87,36,87.28,88.21,61.41,88.21,10.81,62.1,10.81,36s25.52-49,50.6-49,49.27,28.63,49.27,49S86.1,85,61.41,85,14.52,58.7,14.52,36s25.7-46.1,46.89-46.1,46.36,25.14,46.36,46-26.16,45.7-46.36,45.7S18.5,59.34,18.5,35.88,42.5-6.37,61.41-6.37s42.65,18,42.65,42.39S78.36,77.08,61.41,77.08,22.2,60.46,22.47,36C22.64,20.89,38-1.6,61.41-1.6A37.86,37.86,0,0,1,99.56,36c0,18.45-23.14,37.09-38.15,37.09S25.38,55.62,27.5,36c.91-8.43,10.86-31.79,33.91-31.79S94.53,24.62,94.53,36s-17,30.2-33.11,30.2S32.54,49,32.54,36,42.85,10.58,61.41,10.58A26.36,26.36,0,0,1,88.43,36c0,10.07-11.39,19.87-27,19.87S40,47.41,40,35.88,50.29,19.33,61.41,19.33,80.75,29.66,80.75,35.88,74.13,47.94,61.41,47.94,48.7,41,48.7,35.88s5.83-6.76,12.72-6.76,9.54,3.44,9.54,6.89-6.62,3.44-9.54,3.44"/><path id="_Path_23" data-name="&lt;Path&gt;" class="cls-3" d="M60.07-24.33c17.27.21,34.05,9.18,45.42,21.92a58.59,58.59,0,0,1,12.7,55.5C112.53,72.45,96.65,87.8,77.43,93.61c-20.3,6.14-41.29-.24-56.31-14.84C6.47,64.52-1.66,42.63,4.14,22.5,9.71,3.16,27-11.22,46-16.6c42.11-12,83.07,32,66.31,73C103.88,76.92,83,92.1,60.55,91.58A54.62,54.62,0,0,1,14,62.34C4.72,44.61,5.17,21.77,17.56,5.66c12.52-16.27,35.86-25.11,55.8-19.08,19.69,6,37.33,24.71,39.56,45.55,2.32,21.67-14.29,42.77-33.15,51.53-22.6,10.5-47.06-1.19-59.85-21.06C8.1,44.21,9.26,21.75,23.89,5.28,31.78-3.6,42.64-10.25,54.45-12.14c11.16-1.79,21.86,1.65,31,8.1,14.06,10,27.86,28.65,23.78,46.84C104.76,62.47,85,83,64.32,84.6c-21,1.59-39.95-16.2-46.56-35C10.58,29.28,21.67,9.23,38.84-2.12c9.86-6.52,21.32-9.68,32.78-5.7C81-4.57,89.29,1.92,95.65,9.46c6,7.07,11,16,11.38,25.46.41,9.6-4.53,18.84-10.41,26.09-6.54,8.06-15.3,15.11-25.2,18.51-11,3.78-22.17.49-31.35-6.15C23.25,61.19,13.4,38.5,23.41,19,33,.34,55.43-11.36,75.47-2.88c17.68,7.48,31.32,26.54,27.11,46.22C98.73,61.3,79,77.73,60.34,76.71c-18.52-1-34.75-17.87-36.87-35.88C21.16,21.3,37.64,1.27,57-1,77.81-3.48,96.93,12.43,98.7,33.2c.87,10.22-4.24,19.33-11.26,26.41-7.59,7.66-19,15-30.21,12.66C40.71,68.8,24.47,50.49,28.77,33,33.19,14.95,49.92.9,69,5.46,82.7,8.73,97.08,24.86,93.29,39.85,90.93,49.2,82.61,57.6,74.43,62.19,63.24,68.48,51.11,65.8,42.5,56.7c-6.28-6.63-10.56-16.1-8.82-25.34C35.9,19.57,46.28,12,57.92,11c10.51-.87,20.58,3.41,26.07,12.6C87.77,30,89.31,38,85.09,44.48c-7.09,10.94-25.32,14.71-36.44,8C41.74,48.3,39,38.23,41.43,30.73c4.09-12.56,22.66-13.94,31.73-6.47,7.13,5.87,10.07,16,.34,21-8.28,4.22-23.38,4.36-24-7.38-.12-2.15,0-4.09,1.42-5.84,2.81-3.55,13.29-3.47,16.79-.8,1.46,1.11,2.77,3,2.47,4.91-.51,3.32-5.76,3-8.42,3-.43,0-1.57.64-.61.64,2.73,0,7,.2,9.26-1.69s1.12-5.29-.92-7.07C65,27.16,51,27.5,48.38,33.86c-1.17,2.82-.5,7.68,1.19,10.18,2.3,3.4,6.77,4.08,10.56,4.19,7.19.22,18.08-1.63,20.84-9.55,3.11-8.93-7.78-17.76-15.44-19.29s-17.93.74-23,7c-5.54,6.81-4,18.94,2.34,24.79,7,6.47,19.15,6.06,27.64,3.24s17-9.72,16.65-19.4C88.81,26,82.85,17.35,75,13.29c-17.1-8.82-42.71,1.57-43.14,22.35-.22,10.68,7,21.51,15.9,27,8.1,5,17.37,4.9,25.78.76C82.44,59,91,50.67,94.27,41.09c2.61-7.69-.63-16.46-5-22.87C78.42,2.35,55.48-.8,40.76,11.56a42.36,42.36,0,0,0-13.25,21c-2.57,9.53,1,19.34,7.16,26.72S50.82,73.4,60.95,73.42c8.88,0,17.64-5,24.22-10.58,8.1-6.83,15.23-16.61,15.11-27.62A38.36,38.36,0,0,0,86.71,7C69.94-7.26,45-3.43,31.37,13c-6.06,7.28-10.16,16.54-9.55,26.13.74,11.57,6.82,22.16,15.83,29.33C52.87,80.55,71.42,79.18,86.74,68c8.68-6.32,15.63-15.46,17.52-26.2,2-11.17-1.76-22.54-8.84-31.22C82.5-5.27,61.55-11.29,43.15-1.68,33.7,3.26,25.53,11.24,21.11,21c-5.26,11.63-3.82,24.65,2.32,35.66,10.3,18.48,31.65,30.91,52.15,21.78,18.26-8.13,37.7-29.66,31.71-51C101.76,7.67,79.54-12.71,58-10.17,37.26-7.73,16.2,11.93,14,32.92c-2.39,22.59,17.27,46.67,38.88,51.5,21.18,4.73,41.59-10.53,52-27.91,5.4-9,8.2-19.15,5.27-29.5C106.94,15.85,99.42,5.77,90.59-1.6,82.31-8.51,72-13.48,61-13.3c-10.57.17-20.93,4.22-29.4,10.42-9.54,7-17.17,17-20.17,28.57C8.31,37.81,11,50.48,17.34,61.13c11.72,19.8,35.12,32.68,57.87,25,21.3-7.23,40.94-29.53,39.29-53-1.72-24.37-25-46.8-49.11-48.9C46-17.49,25.16-7.78,14.33,8.4.83,28.56,4.66,56.9,20.74,74.47A54.81,54.81,0,0,0,78.9,89.13c21.38-7.51,37.56-27.77,38.79-50.59C119,13.71,101.25-8.88,78.16-16.64c-19.53-6.56-41.35-.45-57,12.34C2.25,11.16-4.21,35.92,5.45,58.53c9.13,21.37,30.92,38.12,54.62,38.2,20.13.07,40.07-10.52,51.5-27a58.88,58.88,0,0,0-.3-67.08C100-13.28,80.73-24.73,61-25c-.34,0-1.65.63-.93.64Z"/></g></g><g id="_Group_21" data-name="&lt;Group&gt;"><g id="_Group_22" data-name="&lt;Group&gt;"><path id="_Path_24" data-name="&lt;Path&gt;" class="cls-3" d="M-.76,36.2C-1,61.28-16.61,84.32-40.42,92.89c-24.24,8.72-52,.19-67.63-20.07a61.05,61.05,0,0,1-4.64-67,60.07,60.07,0,0,1,67.53-28C-19-15-1.07,9.28-.76,36.2c0,.32,1.45.08,1.45-.39-.3-26.6-17.74-50.57-43.4-58.24A62.57,62.57,0,0,0-107.77-3a61.35,61.35,0,0,0-4.33,72.63,61.74,61.74,0,0,0,64.34,26A61.92,61.92,0,0,0,.69,35.81C.69,35.51-.76,35.73-.76,36.2Z"/></g><g id="_Group_23" data-name="&lt;Group&gt;"><path id="_Path_25" data-name="&lt;Path&gt;" class="cls-3" d="M-61.22-24.33C-44-24.13-27.17-15.15-15.8-2.42A58.59,58.59,0,0,1-3.1,53.08C-8.75,72.45-24.63,87.8-43.86,93.61c-20.3,6.14-41.29-.24-56.31-14.84-14.65-14.25-22.78-36.14-17-56.27,5.57-19.34,22.86-33.72,41.82-39.1,42.11-12,83.07,32,66.31,73C-17.4,76.92-38.26,92.1-60.73,91.58a54.62,54.62,0,0,1-46.59-29.24c-9.25-17.73-8.8-40.57,3.59-56.68,12.52-16.27,35.86-25.11,55.8-19.08,19.69,6,37.33,24.71,39.56,45.55C-6,53.8-22.66,74.89-41.51,83.65c-22.6,10.5-47.06-1.19-59.85-21.06-11.83-18.38-10.66-40.83,4-57.31,7.88-8.88,18.75-15.53,30.56-17.42,11.16-1.79,21.86,1.65,31,8.1C-21.82,5.93-8,24.61-12.1,42.8-16.52,62.47-36.32,83-57,84.6c-21,1.59-39.95-16.2-46.56-35-7.17-20.35,3.92-40.4,21.08-51.75,9.86-6.52,21.32-9.68,32.78-5.7,9.38,3.26,17.68,9.74,24,17.28,6,7.07,11,16,11.38,25.46.41,9.6-4.53,18.84-10.41,26.09-6.54,8.06-15.3,15.11-25.2,18.51-11,3.78-22.17.49-31.35-6.15C-98,61.19-107.88,38.5-97.88,19c9.55-18.63,32-30.33,52.06-21.85C-28.13,4.6-14.5,23.66-18.71,43.34c-3.84,18-23.53,34.39-42.24,33.37-18.52-1-34.75-17.87-36.87-35.88C-100.12,21.3-83.65,1.27-64.28-1c20.8-2.46,39.92,13.45,41.7,34.22.87,10.22-4.24,19.33-11.26,26.41-7.59,7.66-19,15-30.21,12.66C-80.58,68.8-96.81,50.49-92.52,33-88.1,14.95-71.36.9-52.26,5.46-38.58,8.73-24.21,24.86-28,39.85-30.35,49.2-38.67,57.6-46.86,62.19-58,68.48-70.17,65.8-78.78,56.7c-6.28-6.63-10.56-16.1-8.82-25.34C-85.39,19.57-75,12-63.37,11c10.51-.87,20.58,3.41,26.07,12.6C-33.51,30-32,38-36.19,44.48c-7.09,10.94-25.32,14.71-36.44,8-6.92-4.18-9.67-14.25-7.23-21.75,4.09-12.56,22.66-13.94,31.73-6.47,7.13,5.87,10.07,16,.34,21-8.28,4.22-23.38,4.36-24-7.38-.12-2.15,0-4.09,1.42-5.84,2.81-3.55,13.29-3.47,16.79-.8,1.46,1.11,2.77,3,2.47,4.91-.51,3.32-5.76,3-8.42,3-.43,0-1.57.64-.61.64,2.73,0,7,.2,9.26-1.69s1.12-5.29-.92-7.07c-4.43-3.86-18.44-3.52-21.07,2.84-1.17,2.82-.5,7.68,1.19,10.18,2.3,3.4,6.77,4.08,10.56,4.19,7.19.22,18.08-1.63,20.84-9.55,3.11-8.93-7.78-17.76-15.44-19.29s-17.93.74-23,7c-5.54,6.81-4,18.94,2.34,24.79,7,6.47,19.15,6.06,27.64,3.24s17-9.72,16.65-19.4c-.33-9-6.29-17.64-14.18-21.71C-63.43,4.47-89,14.86-89.46,35.64c-.22,10.68,7,21.51,15.9,27,8.1,5,17.37,4.9,25.78.76C-38.84,59-30.26,50.67-27,41.09c2.61-7.69-.63-16.46-5-22.87-10.84-15.86-33.78-19-48.5-6.66a42.36,42.36,0,0,0-13.25,21c-2.57,9.53,1,19.34,7.16,26.72S-70.47,73.4-60.34,73.42c8.88,0,17.64-5,24.22-10.58C-28,56-20.89,46.24-21,35.22A38.36,38.36,0,0,0-34.58,7C-51.35-7.26-76.26-3.43-89.92,13c-6.06,7.28-10.16,16.54-9.55,26.13.74,11.57,6.82,22.16,15.83,29.33,15.23,12.12,33.77,10.75,49.09-.4,8.68-6.32,15.63-15.46,17.52-26.2,2-11.17-1.76-22.54-8.84-31.22C-38.79-5.27-59.74-11.29-78.14-1.68c-9.45,4.94-17.62,12.92-22,22.69-5.26,11.63-3.82,24.65,2.32,35.66,10.3,18.48,31.65,30.91,52.15,21.78C-27.45,70.32-8,48.8-14,27.44c-5.54-19.76-27.75-40.14-49.3-37.61-20.73,2.44-41.79,22.09-44,43.09C-109.69,55.51-90,79.59-68.43,84.42c21.18,4.73,41.59-10.53,52-27.91,5.4-9,8.2-19.15,5.27-29.5C-14.35,15.85-21.87,5.77-30.69-1.6-39-8.51-49.29-13.48-60.25-13.3c-10.57.17-20.93,4.22-29.4,10.42-9.54,7-17.17,17-20.17,28.57-3.15,12.11-.42,24.79,5.88,35.43,11.72,19.8,35.12,32.68,57.87,25,21.3-7.23,40.94-29.53,39.29-53-1.72-24.37-25-46.8-49.11-48.9-19.39-1.69-40.23,8-51.06,24.2-13.5,20.16-9.66,48.5,6.41,66.07A54.8,54.8,0,0,0-42.38,89.13C-21,81.62-4.82,61.36-3.59,38.54-2.25,13.71-20-8.88-43.13-16.64c-19.53-6.56-41.35-.45-57,12.34C-119,11.16-125.49,35.92-115.84,58.53c9.13,21.37,30.92,38.12,54.62,38.2,20.13.07,40.07-10.52,51.5-27A58.88,58.88,0,0,0-10,2.62C-21.31-13.28-40.55-24.73-60.29-25c-.34,0-1.65.63-.93.64Z"/></g></g><g id="_Group_24" data-name="&lt;Group&gt;"><g id="_Group_25" data-name="&lt;Group&gt;"><circle id="_Path_26" data-name="&lt;Path&gt;" class="cls-2" cx="121.22" cy="72.01" r="60.67"/><path id="_Path_27" data-name="&lt;Path&gt;" class="cls-3" d="M181.16,72.2c-.28,25.08-15.85,48.12-39.66,56.69-24.24,8.72-52,.19-67.63-20.07a61.05,61.05,0,0,1-4.64-67,60.07,60.07,0,0,1,67.53-28c26.19,7.18,44.1,31.47,44.4,58.39,0,.32,1.45.08,1.45-.39-.3-26.6-17.74-50.57-43.4-58.24A62.57,62.57,0,0,0,74.16,33a61.35,61.35,0,0,0-4.33,72.63A61.56,61.56,0,0,0,182.61,71.81C182.62,71.51,181.17,71.73,181.16,72.2Z"/></g><g id="_Group_26" data-name="&lt;Group&gt;"><path id="_Path_28" data-name="&lt;Path&gt;" class="cls-2" d="M121.17,11.35c26.39,0,60.75,24.11,60.75,60.67s-31.17,60.4-60.75,60.4-59-27.55-59-60.4,32.54-55.1,59.87-55.1,55.63,24.37,55.63,55-26.49,56-55.63,56-54.57-23.58-54.57-56,28.35-51.53,54.57-51.53S174.51,46.61,174.51,72s-26.59,52.19-52.45,52.19S71.46,98.1,71.46,72,97,23,122.06,23s49.27,28.63,49.27,49-24.59,49-49.27,49S75.16,94.7,75.16,72s25.7-46.1,46.89-46.1,46.36,25.14,46.36,46-26.16,45.7-46.36,45.7S79.14,95.34,79.14,71.88s24-42.25,42.92-42.25,42.65,18,42.65,42.39-25.7,41.06-42.65,41.06S82.84,96.46,83.11,72c.17-15.13,15.57-37.62,38.94-37.62A37.86,37.86,0,0,1,160.2,72c0,18.45-23.14,37.09-38.15,37.09S86,91.62,88.15,72c.91-8.43,10.86-31.79,33.91-31.79S155.17,60.62,155.17,72s-17,30.2-33.11,30.2S93.18,85,93.18,72s10.31-25.43,28.88-25.43a26.36,26.36,0,0,1,27,25.43c0,10.07-11.39,19.87-27,19.87s-21.46-8.48-21.46-20,10.33-16.56,21.46-16.56,19.34,10.33,19.34,16.56-6.62,12.05-19.34,12.05S109.34,77,109.34,71.88s5.83-6.76,12.72-6.76,9.54,3.44,9.54,6.89-6.62,3.44-9.54,3.44"/><path id="_Path_29" data-name="&lt;Path&gt;" class="cls-3" d="M120.71,11.67c17.27.21,34.05,9.18,45.42,21.92a58.59,58.59,0,0,1,12.7,55.5c-5.65,19.37-21.53,34.71-40.76,40.53-20.3,6.14-41.29-.24-56.31-14.84C67.11,100.52,59,78.63,64.78,58.5c5.57-19.34,22.86-33.72,41.82-39.1,42.11-12,83.07,32,66.31,73-8.39,20.51-29.25,35.7-51.72,35.17A54.62,54.62,0,0,1,74.61,98.34c-9.25-17.73-8.8-40.57,3.59-56.68C90.72,25.38,114.06,16.55,134,22.58c19.69,6,37.33,24.71,39.56,45.55,2.32,21.67-14.29,42.77-33.15,51.53-22.6,10.5-47.06-1.19-59.85-21.06-11.83-18.38-10.66-40.83,4-57.31,7.88-8.88,18.75-15.53,30.56-17.42,11.16-1.79,21.86,1.65,31,8.1,14.06,10,27.86,28.65,23.78,46.84C165.41,98.47,145.61,119,125,120.6c-21,1.59-39.95-16.2-46.56-35-7.17-20.35,3.92-40.4,21.08-51.75,9.86-6.52,21.32-9.68,32.78-5.7,9.38,3.26,17.68,9.74,24,17.28,6,7.07,11,16,11.38,25.46.41,9.6-4.53,18.84-10.41,26.09-6.54,8.06-15.3,15.11-25.2,18.51-11,3.78-22.17.49-31.35-6.15C83.89,97.19,74,74.5,84.05,55c9.55-18.63,32-30.33,52.06-21.85,17.68,7.48,31.32,26.54,27.11,46.22-3.84,18-23.53,34.39-42.24,33.37-18.52-1-34.75-17.87-36.87-35.88C81.8,57.3,98.28,37.27,117.65,35c20.8-2.46,39.92,13.45,41.7,34.22.87,10.22-4.24,19.33-11.26,26.41-7.59,7.66-19,15-30.21,12.66C101.35,104.8,85.11,86.49,89.41,69c4.42-18,21.15-32.06,40.25-27.5,13.68,3.27,28.06,19.4,24.27,34.39-2.36,9.36-10.68,17.75-18.86,22.35-11.19,6.29-23.32,3.61-31.93-5.49-6.28-6.63-10.56-16.1-8.82-25.34C96.54,55.57,106.92,48,118.56,47c10.51-.87,20.58,3.41,26.07,12.6C148.41,66,150,74,145.74,80.48c-7.09,10.94-25.32,14.71-36.44,8-6.92-4.18-9.67-14.25-7.23-21.75,4.09-12.56,22.66-13.94,31.73-6.47,7.13,5.87,10.07,16,.34,21-8.28,4.22-23.38,4.36-24-7.38-.12-2.15,0-4.09,1.42-5.84,2.81-3.55,13.29-3.47,16.79-.8,1.46,1.11,2.77,3,2.47,4.91-.51,3.32-5.76,3-8.42,3-.43,0-1.57.64-.61.64,2.73,0,7,.2,9.26-1.69s1.12-5.29-.92-7.07c-4.43-3.86-18.44-3.52-21.07,2.84-1.17,2.82-.5,7.68,1.19,10.18,2.3,3.4,6.77,4.08,10.56,4.19,7.19.22,18.08-1.63,20.84-9.55,3.11-8.93-7.78-17.76-15.44-19.29s-17.93.74-23,7c-5.54,6.81-4,18.94,2.34,24.79,7,6.47,19.15,6.06,27.64,3.24s17-9.72,16.65-19.4c-.33-9-6.29-17.64-14.18-21.71-17.1-8.82-42.71,1.57-43.14,22.35-.22,10.68,7,21.51,15.9,27,8.1,5,17.37,4.9,25.78.76,8.93-4.4,17.51-12.7,20.77-22.28,2.61-7.69-.63-16.46-5-22.87-10.84-15.86-33.78-19-48.5-6.66a42.36,42.36,0,0,0-13.25,21c-2.57,9.53,1,19.34,7.16,26.72s16.14,14.15,26.27,14.18c8.88,0,17.64-5,24.22-10.58C153.91,92,161,82.24,160.92,71.22A38.36,38.36,0,0,0,147.35,43C130.58,28.74,105.67,32.57,92,49c-6.06,7.28-10.16,16.54-9.55,26.13.74,11.57,6.82,22.16,15.83,29.33,15.23,12.12,33.77,10.75,49.09-.4,8.68-6.32,15.63-15.46,17.52-26.2,2-11.17-1.76-22.54-8.84-31.22-12.93-15.87-33.88-21.9-52.28-12.28-9.45,4.94-17.62,12.92-22,22.69-5.26,11.63-3.82,24.65,2.32,35.66,10.3,18.48,31.65,30.91,52.15,21.78,18.26-8.13,37.7-29.66,31.71-51-5.54-19.76-27.75-40.14-49.3-37.61-20.73,2.44-41.79,22.09-44,43.09-2.39,22.59,17.27,46.67,38.88,51.5,21.18,4.73,41.59-10.53,52-27.91,5.4-9,8.2-19.15,5.27-29.5-3.16-11.17-10.67-21.25-19.5-28.61-8.28-6.91-18.59-11.88-29.56-11.7-10.57.17-20.93,4.22-29.4,10.42-9.54,7-17.17,17-20.17,28.57C68.95,73.81,71.68,86.48,78,97.13c11.72,19.8,35.12,32.68,57.87,25,21.3-7.23,40.94-29.53,39.29-53-1.72-24.37-25-46.8-49.11-48.9-19.39-1.69-40.23,8-51.06,24.2-13.5,20.16-9.66,48.5,6.41,66.07a54.81,54.81,0,0,0,58.16,14.66c21.38-7.51,37.56-27.77,38.79-50.59,1.34-24.83-16.45-47.43-39.54-55.19-19.53-6.56-41.35-.45-57,12.34C62.9,47.16,56.43,71.92,66.09,94.53c9.13,21.37,30.92,38.12,54.62,38.2,20.13.07,40.07-10.52,51.5-27a58.88,58.88,0,0,0-.3-67.08C160.62,22.72,141.37,11.27,121.64,11c-.34,0-1.65.63-.93.64Z"/></g></g><g id="_Group_27" data-name="&lt;Group&gt;"><g id="_Group_28" data-name="&lt;Group&gt;"><circle id="_Path_30" data-name="&lt;Path&gt;" class="cls-2" cx="-0.06" cy="72.01" r="60.67"/><path id="_Path_31" data-name="&lt;Path&gt;" class="cls-3" d="M59.88,72.2C59.6,97.28,44,120.32,20.22,128.89c-24.24,8.72-52,.19-67.63-20.07a61.05,61.05,0,0,1-4.64-67,60.07,60.07,0,0,1,67.53-28C41.66,21,59.58,45.28,59.88,72.2c0,.32,1.45.08,1.45-.39-.3-26.6-17.74-50.57-43.4-58.24A62.57,62.57,0,0,0-47.12,33a61.35,61.35,0,0,0-4.33,72.63,61.74,61.74,0,0,0,64.34,26A61.92,61.92,0,0,0,61.33,71.81C61.33,71.51,59.88,71.73,59.88,72.2Z"/></g><g id="_Group_29" data-name="&lt;Group&gt;"><path id="_Path_32" data-name="&lt;Path&gt;" class="cls-2" d="M-.11,11.35c26.39,0,60.75,24.11,60.75,60.67s-31.17,60.4-60.75,60.4-59-27.55-59-60.4S-26.56,16.91.77,16.91s55.63,24.37,55.63,55-26.49,56-55.63,56-54.57-23.58-54.57-56S-25.46,20.36.77,20.36,53.22,46.61,53.22,72,26.64,124.21.77,124.21-49.83,98.1-49.83,72-24.31,23,.77,23,50,51.63,50,72,25.45,121,.77,121-46.12,94.7-46.12,72s25.7-46.1,46.89-46.1,46.36,25.14,46.36,46S21,117.58.77,117.58s-42.92-22.25-42.92-45.7,24-42.25,42.92-42.25S43.42,47.62,43.42,72,17.72,113.08.77,113.08-38.44,96.46-38.17,72C-38,56.89-22.6,34.4.77,34.4A37.86,37.86,0,0,1,38.92,72c0,18.45-23.14,37.09-38.15,37.09S-35.26,91.62-33.14,72c.91-8.43,10.86-31.79,33.91-31.79S33.89,60.62,33.89,72s-17,30.2-33.11,30.2S-28.11,85-28.11,72-17.79,46.58.77,46.58A26.36,26.36,0,0,1,27.79,72c0,10.07-11.39,19.87-27,19.87s-21.46-8.48-21.46-20S-10.36,55.33.77,55.33,20.11,65.66,20.11,71.88,13.49,83.94.77,83.94-11.95,77-11.95,71.88-6.12,65.13.77,65.13s9.54,3.44,9.54,6.89S3.68,75.46.77,75.46"/><path id="_Path_33" data-name="&lt;Path&gt;" class="cls-3" d="M-.58,11.67c17.27.21,34.05,9.18,45.42,21.92a58.59,58.59,0,0,1,12.7,55.5C51.89,108.45,36,123.8,16.78,129.61c-20.3,6.14-41.29-.24-56.31-14.84-14.65-14.25-22.78-36.14-17-56.27,5.57-19.34,22.86-33.72,41.82-39.1,42.11-12,83.07,32,66.31,73-8.39,20.51-29.25,35.7-51.72,35.17A54.62,54.62,0,0,1-46.68,98.34c-9.25-17.73-8.8-40.57,3.59-56.68,12.52-16.27,35.86-25.11,55.8-19.08,19.69,6,37.33,24.71,39.56,45.55C54.6,89.8,38,110.89,19.13,119.65c-22.6,10.5-47.06-1.19-59.85-21.06-11.83-18.38-10.66-40.83,4-57.31C-28.87,32.4-18,25.75-6.19,23.86,5,22.07,15.67,25.51,24.76,32c14.06,10,27.86,28.65,23.78,46.84C44.12,98.47,24.32,119,3.67,120.6c-21,1.59-39.95-16.2-46.56-35C-50.06,65.28-39,45.23-21.81,33.88-11.94,27.36-.49,24.2,11,28.18c9.38,3.26,17.68,9.74,24,17.28,6,7.07,11,16,11.38,25.46C46.79,80.51,41.86,89.76,36,97c-6.54,8.06-15.3,15.11-25.2,18.51-11,3.78-22.17.49-31.35-6.15C-37.39,97.19-47.24,74.5-37.23,55c9.55-18.63,32-30.33,52.06-21.85C32.51,40.6,46.15,59.66,41.94,79.34c-3.84,18-23.53,34.39-42.24,33.37-18.52-1-34.75-17.87-36.87-35.88C-39.48,57.3-23,37.27-3.64,35c20.8-2.46,39.92,13.45,41.7,34.22.87,10.22-4.24,19.33-11.26,26.41-7.59,7.66-19,15-30.21,12.66C-19.93,104.8-36.17,86.49-31.87,69c4.42-18,21.15-32.06,40.25-27.5,13.68,3.27,28.06,19.4,24.27,34.39C30.29,85.2,22,93.6,13.79,98.19,2.59,104.48-9.53,101.8-18.14,92.7-24.42,86.07-28.7,76.6-27,67.36-24.75,55.57-14.37,48-2.73,47c10.51-.87,20.58,3.41,26.07,12.6C27.13,66,28.67,74,24.45,80.48,17.36,91.41-.87,95.19-12,88.48c-6.92-4.18-9.67-14.25-7.23-21.75,4.09-12.56,22.66-13.94,31.73-6.47,7.13,5.87,10.07,16,.34,21-8.28,4.22-23.38,4.36-24-7.38-.12-2.15,0-4.09,1.42-5.84C-7,64.49,3.52,64.57,7,67.23c1.46,1.11,2.77,3,2.47,4.91-.51,3.32-5.76,3-8.42,3-.43,0-1.57.64-.61.64,2.73,0,7,.2,9.26-1.69S10.84,68.8,8.8,67C4.37,63.16-9.64,63.5-12.27,69.86c-1.17,2.82-.5,7.68,1.19,10.18,2.3,3.4,6.77,4.08,10.56,4.19,7.19.22,18.08-1.63,20.84-9.55,3.11-8.93-7.78-17.76-15.44-19.29s-17.93.74-23,7c-5.54,6.81-4,18.94,2.34,24.79,7,6.47,19.15,6.06,27.64,3.24s17-9.72,16.65-19.4c-.33-9-6.29-17.64-14.18-21.71-17.1-8.82-42.71,1.57-43.14,22.35-.22,10.68,7,21.51,15.9,27,8.1,5,17.37,4.9,25.78.76C21.8,95,30.38,86.67,33.63,77.09c2.61-7.69-.63-16.46-5-22.87-10.84-15.86-33.78-19-48.5-6.66a42.36,42.36,0,0,0-13.25,21c-2.57,9.53,1,19.34,7.16,26.72S-9.82,109.4.31,109.42c8.88,0,17.64-5,24.22-10.58C32.62,92,39.76,82.24,39.63,71.22A38.36,38.36,0,0,0,26.06,43C9.29,28.74-15.62,32.57-29.28,49c-6.06,7.28-10.16,16.54-9.55,26.13C-38.08,86.68-32,97.26-23,104.43c15.23,12.12,33.77,10.75,49.09-.4,8.68-6.32,15.63-15.46,17.52-26.2,2-11.17-1.77-22.54-8.84-31.22C21.86,30.73.9,24.71-17.49,34.32c-9.45,4.94-17.62,12.92-22,22.69-5.26,11.63-3.82,24.65,2.32,35.66,10.3,18.48,31.65,30.91,52.15,21.78,18.26-8.13,37.7-29.66,31.71-51C41.11,43.67,18.9,23.29-2.65,25.83c-20.73,2.44-41.79,22.09-44,43.09-2.39,22.59,17.27,46.67,38.88,51.5,21.18,4.73,41.59-10.53,52-27.91,5.4-9,8.2-19.15,5.27-29.5C46.29,51.85,38.78,41.77,29.95,34.4,21.67,27.49,11.35,22.52.39,22.7c-10.57.17-20.93,4.22-29.4,10.42-9.54,7-17.17,17-20.17,28.57-3.15,12.11-.42,24.79,5.88,35.43,11.72,19.8,35.12,32.68,57.87,25,21.3-7.23,40.94-29.53,39.29-53-1.72-24.37-25-46.8-49.11-48.9-19.39-1.69-40.23,8-51.06,24.2C-59.81,64.56-56,92.9-39.9,110.47a54.81,54.81,0,0,0,58.16,14.66c21.38-7.51,37.56-27.77,38.79-50.59C58.39,49.71,40.6,27.12,17.52,19.36c-19.53-6.56-41.35-.45-57,12.34C-58.39,47.16-64.85,71.92-55.19,94.53c9.13,21.37,30.92,38.12,54.62,38.2,20.13.07,40.07-10.52,51.5-27a58.88,58.88,0,0,0-.3-67.08C39.33,22.72,20.09,11.27.35,11c-.34,0-1.65.63-.93.64Z"/></g></g><g id="_Group_30" data-name="&lt;Group&gt;"><g id="_Group_31" data-name="&lt;Group&gt;"><circle id="_Path_34" data-name="&lt;Path&gt;" class="cls-2" cx="181.86" cy="108.01" r="60.67"/><path id="_Path_35" data-name="&lt;Path&gt;" class="cls-3" d="M241.81,108.2c-.28,25.08-15.85,48.12-39.66,56.69-24.24,8.72-52,.19-67.63-20.07a61.05,61.05,0,0,1-4.64-67,60.07,60.07,0,0,1,67.53-28c26.19,7.18,44.1,31.47,44.4,58.39,0,.32,1.45.08,1.45-.39-.3-26.6-17.74-50.57-43.4-58.24A62.57,62.57,0,0,0,134.8,69a61.17,61.17,0,1,0,108.45,38.86C243.26,107.51,241.81,107.73,241.81,108.2Z"/></g></g><g id="_Group_32" data-name="&lt;Group&gt;"><g id="_Group_33" data-name="&lt;Group&gt;"><circle id="_Path_36" data-name="&lt;Path&gt;" class="cls-2" cx="60.58" cy="108.01" r="60.67"/><path id="_Path_37" data-name="&lt;Path&gt;" class="cls-3" d="M120.52,108.2c-.28,25.08-15.85,48.12-39.66,56.69-24.24,8.72-52,.19-67.63-20.07a61.05,61.05,0,0,1-4.64-67,60.07,60.07,0,0,1,67.53-28c26.19,7.18,44.1,31.47,44.4,58.39,0,.32,1.45.08,1.45-.39-.3-26.6-17.74-50.57-43.4-58.24A62.57,62.57,0,0,0,13.52,69a60.9,60.9,0,0,0,60,98.62A61.92,61.92,0,0,0,122,107.81C122,107.51,120.53,107.73,120.52,108.2Z"/></g><g id="_Group_34" data-name="&lt;Group&gt;"><path id="_Path_38" data-name="&lt;Path&gt;" class="cls-2" d="M60.53,47.35c26.39,0,60.75,24.11,60.75,60.67s-31.17,60.4-60.75,60.4-59-27.55-59-60.4,32.54-55.1,59.87-55.1S117,77.29,117,107.88s-26.49,56-55.63,56-54.57-23.58-54.57-56S35.19,56.36,61.41,56.36,113.87,82.61,113.87,108s-26.59,52.19-52.45,52.19S10.81,134.1,10.81,108s25.52-49,50.6-49,49.27,28.63,49.27,49S86.1,157,61.41,157,14.52,130.7,14.52,108s25.7-46.1,46.89-46.1,46.36,25.14,46.36,46-26.16,45.7-46.36,45.7S18.5,131.34,18.5,107.88s24-42.25,42.92-42.25,42.65,18,42.65,42.39-25.7,41.06-42.65,41.06S22.2,132.46,22.47,108C22.64,92.89,38,70.4,61.41,70.4A37.86,37.86,0,0,1,99.56,108c0,18.45-23.14,37.09-38.15,37.09S25.38,127.62,27.5,108c.91-8.43,10.86-31.79,33.91-31.79S94.53,96.62,94.53,108s-17,30.2-33.11,30.2S32.54,121,32.54,108,42.85,82.58,61.41,82.58a26.36,26.36,0,0,1,27,25.43c0,10.07-11.39,19.87-27,19.87S40,119.41,40,107.88,50.29,91.33,61.41,91.33s19.34,10.33,19.34,16.56-6.62,12.05-19.34,12.05S48.7,113,48.7,107.88s5.83-6.76,12.72-6.76,9.54,3.44,9.54,6.89-6.62,3.44-9.54,3.44"/><path id="_Path_39" data-name="&lt;Path&gt;" class="cls-3" d="M60.07,47.67c17.27.21,34.05,9.18,45.42,21.92a58.59,58.59,0,0,1,12.7,55.5c-5.65,19.37-21.53,34.71-40.76,40.53-20.3,6.14-41.29-.24-56.31-14.84C6.47,136.52-1.66,114.63,4.14,94.5,9.71,75.16,27,60.78,46,55.4c42.11-12,83.07,32,66.31,73-8.39,20.51-29.25,35.7-51.72,35.17A54.62,54.62,0,0,1,14,134.34c-9.25-17.73-8.8-40.57,3.59-56.68,12.52-16.27,35.86-25.11,55.8-19.08,19.69,6,37.33,24.71,39.56,45.55,2.32,21.67-14.29,42.77-33.15,51.53-22.6,10.5-47.06-1.19-59.85-21.06-11.83-18.38-10.66-40.83,4-57.31,7.88-8.88,18.75-15.53,30.56-17.42,11.16-1.79,21.86,1.65,31,8.1,14.06,10,27.86,28.65,23.78,46.84C104.76,134.47,85,155,64.32,156.6c-21,1.59-39.95-16.2-46.56-35-7.17-20.35,3.92-40.4,21.08-51.75,9.86-6.52,21.32-9.68,32.78-5.7,9.38,3.26,17.68,9.74,24,17.28,6,7.07,11,16,11.38,25.46.41,9.6-4.53,18.84-10.41,26.09-6.54,8.06-15.3,15.11-25.2,18.51-11,3.78-22.17.49-31.35-6.15C23.25,133.19,13.4,110.5,23.41,91c9.55-18.63,32-30.33,52.06-21.85,17.68,7.48,31.32,26.54,27.11,46.22-3.84,18-23.53,34.39-42.24,33.37-18.52-1-34.75-17.87-36.87-35.88C21.16,93.3,37.64,73.27,57,71c20.8-2.46,39.92,13.45,41.7,34.22.87,10.22-4.24,19.33-11.26,26.41-7.59,7.66-19,15-30.21,12.66C40.71,140.8,24.47,122.49,28.77,105c4.42-18,21.15-32.06,40.25-27.5,13.68,3.27,28.06,19.4,24.27,34.39-2.36,9.36-10.68,17.75-18.86,22.35-11.19,6.29-23.32,3.61-31.93-5.49-6.28-6.63-10.56-16.1-8.82-25.34C35.9,91.57,46.28,84,57.92,83c10.51-.87,20.58,3.41,26.07,12.6,3.78,6.33,5.32,14.34,1.11,20.85-7.09,10.94-25.32,14.71-36.44,8-6.92-4.18-9.67-14.25-7.23-21.75,4.09-12.56,22.66-13.94,31.73-6.47,7.13,5.87,10.07,16,.34,21-8.28,4.22-23.38,4.36-24-7.38-.12-2.15,0-4.09,1.42-5.84,2.81-3.55,13.29-3.47,16.79-.8,1.46,1.11,2.77,3,2.47,4.91-.51,3.32-5.76,3-8.42,3-.43,0-1.57.64-.61.64,2.73,0,7,.2,9.26-1.69s1.12-5.29-.92-7.07C65,99.16,51,99.5,48.38,105.86c-1.17,2.82-.5,7.68,1.19,10.18,2.3,3.4,6.77,4.08,10.56,4.19,7.19.22,18.08-1.63,20.84-9.55,3.11-8.93-7.78-17.76-15.44-19.29s-17.93.74-23,7c-5.54,6.81-4,18.94,2.34,24.79,7,6.47,19.15,6.06,27.64,3.24s17-9.72,16.65-19.4C88.81,98,82.85,89.35,75,85.29c-17.1-8.82-42.71,1.57-43.14,22.35-.22,10.68,7,21.51,15.9,27,8.1,5,17.37,4.9,25.78.76,8.93-4.4,17.51-12.7,20.77-22.28,2.61-7.69-.63-16.46-5-22.87-10.84-15.86-33.78-19-48.5-6.66a42.36,42.36,0,0,0-13.25,21c-2.57,9.53,1,19.34,7.16,26.72s16.14,14.15,26.27,14.18c8.88,0,17.64-5,24.22-10.58,8.1-6.83,15.23-16.61,15.11-27.62A38.36,38.36,0,0,0,86.71,79C69.94,64.74,45,68.57,31.37,85c-6.06,7.28-10.16,16.54-9.55,26.13.74,11.57,6.82,22.16,15.83,29.33,15.23,12.12,33.77,10.75,49.09-.4,8.68-6.32,15.63-15.46,17.52-26.2,2-11.17-1.76-22.54-8.84-31.22C82.5,66.73,61.55,60.71,43.15,70.32,33.7,75.26,25.53,83.24,21.11,93c-5.26,11.63-3.82,24.65,2.32,35.66,10.3,18.48,31.65,30.91,52.15,21.78,18.26-8.13,37.7-29.66,31.71-51C101.76,79.67,79.54,59.29,58,61.83,37.26,64.27,16.2,83.93,14,104.92c-2.39,22.59,17.27,46.67,38.88,51.5,21.18,4.73,41.59-10.53,52-27.91,5.4-9,8.2-19.15,5.27-29.5-3.16-11.17-10.67-21.25-19.5-28.61C82.31,63.49,72,58.52,61,58.7c-10.57.17-20.93,4.22-29.4,10.42-9.54,7-17.17,17-20.17,28.57-3.15,12.11-.42,24.79,5.88,35.43,11.72,19.8,35.12,32.68,57.87,25,21.3-7.23,40.94-29.53,39.29-53-1.72-24.37-25-46.8-49.11-48.9-19.39-1.69-40.23,8-51.06,24.2-13.5,20.16-9.66,48.5,6.41,66.07A54.8,54.8,0,0,0,78.9,161.13c21.38-7.51,37.56-27.77,38.79-50.59C119,85.71,101.25,63.12,78.16,55.36c-19.53-6.56-41.35-.45-57,12.34C2.25,83.16-4.21,107.92,5.45,130.53c9.13,21.37,30.92,38.12,54.62,38.2,20.13.07,40.07-10.52,51.5-27a58.88,58.88,0,0,0-.3-67.08C100,58.72,80.73,47.27,61,47c-.34,0-1.65.63-.93.64Z"/></g></g><g id="_Group_35" data-name="&lt;Group&gt;"><g id="_Group_36" data-name="&lt;Group&gt;"><path id="_Path_40" data-name="&lt;Path&gt;" class="cls-3" d="M-.76,108.2c-.28,25.08-15.85,48.12-39.66,56.69-24.24,8.72-52,.19-67.63-20.07a61.05,61.05,0,0,1-4.64-67,60.07,60.07,0,0,1,67.53-28C-19,57-1.07,81.28-.76,108.2c0,.32,1.45.08,1.45-.39-.3-26.6-17.74-50.57-43.4-58.24A62.57,62.57,0,0,0-107.77,69a61.35,61.35,0,0,0-4.33,72.63,61.74,61.74,0,0,0,64.34,26A61.92,61.92,0,0,0,.69,107.81C.69,107.51-.76,107.73-.76,108.2Z"/></g><g id="_Group_37" data-name="&lt;Group&gt;"><path id="_Path_41" data-name="&lt;Path&gt;" class="cls-3" d="M-61.22,47.67c17.27.21,34.05,9.18,45.42,21.92a58.59,58.59,0,0,1,12.7,55.5c-5.65,19.37-21.53,34.71-40.76,40.53-20.3,6.14-41.29-.24-56.31-14.84-14.65-14.25-22.78-36.14-17-56.27,5.57-19.34,22.86-33.72,41.82-39.1,42.11-12,83.07,32,66.31,73-8.39,20.51-29.25,35.7-51.72,35.17a54.62,54.62,0,0,1-46.59-29.24c-9.25-17.73-8.8-40.57,3.59-56.68,12.52-16.27,35.86-25.11,55.8-19.08,19.69,6,37.33,24.71,39.56,45.55C-6,125.8-22.66,146.89-41.51,155.65c-22.6,10.5-47.06-1.19-59.85-21.06-11.83-18.38-10.66-40.83,4-57.31,7.88-8.88,18.75-15.53,30.56-17.42,11.16-1.79,21.86,1.65,31,8.1C-21.82,77.93-8,96.61-12.1,114.8-16.52,134.47-36.32,155-57,156.6c-21,1.59-39.95-16.2-46.56-35-7.17-20.35,3.92-40.4,21.08-51.75,9.86-6.52,21.32-9.68,32.78-5.7,9.38,3.26,17.68,9.74,24,17.28,6,7.07,11,16,11.38,25.46.41,9.6-4.53,18.84-10.41,26.09-6.54,8.06-15.3,15.11-25.2,18.51-11,3.78-22.17.49-31.35-6.15C-98,133.19-107.88,110.5-97.88,91c9.55-18.63,32-30.33,52.06-21.85,17.68,7.48,31.32,26.54,27.11,46.22-3.84,18-23.53,34.39-42.24,33.37-18.52-1-34.75-17.87-36.87-35.88C-100.12,93.3-83.65,73.27-64.28,71c20.8-2.46,39.92,13.45,41.7,34.22.87,10.22-4.24,19.33-11.26,26.41-7.59,7.66-19,15-30.21,12.66C-80.58,140.8-96.81,122.49-92.52,105c4.42-18,21.16-32.06,40.25-27.5,13.68,3.27,28.06,19.4,24.27,34.39-2.36,9.36-10.68,17.75-18.86,22.35-11.19,6.29-23.32,3.61-31.93-5.49-6.28-6.63-10.56-16.1-8.82-25.34C-85.39,91.57-75,84-63.37,83c10.51-.87,20.58,3.41,26.07,12.6C-33.51,102-32,110-36.19,116.48c-7.09,10.94-25.32,14.71-36.44,8-6.92-4.18-9.67-14.25-7.23-21.75,4.09-12.56,22.66-13.94,31.73-6.47,7.13,5.87,10.07,16,.34,21-8.28,4.22-23.38,4.36-24-7.38-.12-2.15,0-4.09,1.42-5.84,2.81-3.55,13.29-3.47,16.79-.8,1.46,1.11,2.77,3,2.47,4.91-.51,3.32-5.76,3-8.42,3-.43,0-1.57.64-.61.64,2.73,0,7,.2,9.26-1.69s1.12-5.29-.92-7.07c-4.43-3.86-18.44-3.52-21.07,2.84-1.17,2.82-.5,7.68,1.19,10.18,2.3,3.4,6.77,4.08,10.56,4.19,7.19.22,18.08-1.63,20.84-9.55,3.11-8.93-7.78-17.76-15.44-19.29s-17.93.74-23,7c-5.54,6.81-4,18.94,2.34,24.79,7,6.47,19.15,6.06,27.64,3.24s17-9.72,16.65-19.4c-.33-9-6.29-17.64-14.18-21.71-17.1-8.82-42.71,1.57-43.14,22.35-.22,10.68,7,21.51,15.9,27,8.1,5,17.37,4.9,25.78.76,8.93-4.4,17.51-12.7,20.77-22.28,2.61-7.69-.63-16.46-5-22.87-10.84-15.86-33.78-19-48.5-6.66a42.36,42.36,0,0,0-13.25,21c-2.57,9.53,1,19.34,7.16,26.72s16.14,14.15,26.27,14.18c8.88,0,17.64-5,24.22-10.58C-28,128-20.89,118.24-21,107.22A38.36,38.36,0,0,0-34.58,79c-16.77-14.22-41.68-10.4-55.34,6-6.06,7.28-10.16,16.54-9.55,26.13.74,11.57,6.82,22.16,15.83,29.33,15.23,12.12,33.77,10.75,49.09-.4,8.68-6.32,15.63-15.46,17.52-26.2,2-11.17-1.76-22.54-8.84-31.22-12.93-15.87-33.88-21.9-52.28-12.28-9.45,4.94-17.62,12.92-22,22.69-5.26,11.63-3.82,24.65,2.32,35.66,10.3,18.48,31.65,30.91,52.15,21.78C-27.45,142.32-8,120.8-14,99.44c-5.54-19.76-27.75-40.14-49.3-37.61-20.73,2.44-41.79,22.09-44,43.09-2.39,22.59,17.27,46.67,38.88,51.5,21.18,4.73,41.59-10.53,52-27.91,5.4-9,8.2-19.15,5.27-29.5-3.16-11.17-10.67-21.25-19.5-28.61C-39,63.49-49.29,58.52-60.25,58.7c-10.57.17-20.93,4.22-29.4,10.42-9.54,7-17.17,17-20.17,28.57-3.15,12.11-.42,24.79,5.88,35.43,11.72,19.8,35.12,32.68,57.87,25,21.3-7.23,40.94-29.53,39.29-53-1.72-24.37-25-46.8-49.11-48.9-19.39-1.69-40.23,8-51.06,24.2-13.5,20.16-9.66,48.5,6.41,66.07a54.8,54.8,0,0,0,58.16,14.66C-21,153.62-4.82,133.36-3.59,110.54-2.25,85.71-20,63.12-43.13,55.36c-19.53-6.56-41.35-.45-57,12.34-18.91,15.46-25.37,40.22-15.72,62.84,9.13,21.37,30.92,38.12,54.62,38.2,20.13.07,40.07-10.52,51.5-27A58.88,58.88,0,0,0-10,74.62C-21.31,58.72-40.55,47.27-60.29,47c-.34,0-1.65.63-.93.64Z"/></g></g></g></pattern></defs><title>texture3</title><g id="Layer_2" data-name="Layer 2"><g id="PATTERNS"><rect id="pattern2" class="cls-4" width="818.4" height="834.39"/></g></g></svg>