<?xml version="1.0" encoding="utf-8"?>
<!-- Generator: Adobe Illustrator 21.1.0, SVG Export Plug-In . SVG Version: 6.00 Build 0)  -->
<svg version="1.1" id="Layer_1" opacity="0.2" xmlns="http://www.w3.org/2000/svg" xmlns:xlink="http://www.w3.org/1999/xlink"
	 x="0px" y="0px" viewBox="0 0 800 800" style="enable-background:new 0 0 800 800;" xml:space="preserve">
<style type="text/css">
	.st0{fill:none;}
	.st1{fill:#F5F5F5;}
	.st2{fill:#2B2B2B;}
	.st3{fill:url(#SVGID_1_);}
	.st4{opacity:0.8;fill:url(#SVGID_2_);enable-background:new    ;}
</style>
<pattern  y="800" width="322.5" height="241.9" patternUnits="userSpaceOnUse" id="Nueva_muestra_de_motivo_4" viewBox="0 -241.9 322.5 241.9" style="overflow:visible;">
	<g>
		<rect y="-241.9" class="st0" width="322.5" height="241.9"/>
		<rect y="-241.9" class="st0" width="322.5" height="241.9"/>
		<path class="st1" d="M322.5-215.6v19.1c-26,0-43.1-4-57.6-9.6C279.5-211.6,296.6-215.6,322.5-215.6z"/>
		<path class="st1" d="M57.6-206.1c-14.5,5.5-31.6,9.6-57.6,9.6v-19.1l0,0C26-215.6,43.1-211.6,57.6-206.1z"/>
		<path class="st1" d="M101.5-85.1c15-6,32.5-10.4,59.8-10.4S206.1-91,221-85.1c-15,6-32.5,10.4-59.8,10.4S116.5-79.1,101.5-85.1z"
			/>
		<path class="st1" d="M161.3-53c-39.2,0-58.3-9.2-78.5-18.9l-4.9-2.3l4.9-2.3c2.2-1.1,4.4-2.1,6.6-3.2
			c17.5,7.9,37.7,14.8,71.9,14.8s54.4-6.9,71.9-14.7c2.2,1,4.4,2.1,6.6,3.2l4.9,2.3l-4.9,2.3C219.6-62.2,200.5-53,161.3-53z"/>
		<path class="st1" d="M161.3-31.4c-39.2,0-58.3-9.2-78.5-18.9c-9.8-4.7-19.8-9.5-32.2-13.2C55.8-65,61-66.9,66.1-69
			c4.2,1.9,8.3,3.8,12.4,5.8c20.3,9.8,41.3,19.8,82.7,19.8s62.4-10.1,82.7-19.8c4.1-2,8.2-3.9,12.5-5.8c5.1,2.1,10.3,4,15.5,5.6
			c-12.4,3.7-22.4,8.5-32.2,13.2C219.6-40.5,200.5-31.4,161.3-31.4z"/>
		<path class="st1" d="M224.9,0h-63.6c41.4,0,62.4-10.1,82.7-19.8s39.3-18.9,78.5-18.9v12c-41.4,0-62.4,10.1-82.7,19.8
			C234.9-4.5,230-2.2,224.9,0z"/>
		<path class="st1" d="M78.6-19.8C98.9-10.1,119.9,0,161.3,0H97.6c-5.1-2.2-10-4.5-14.9-6.9C62.4-16.6,41.4-26.7,0-26.7l0,0v-12l0,0
			C39.2-38.7,58.3-29.5,78.6-19.8z"/>
		<path class="st1" d="M74.7,0H44.8C32.7-3,18.4-5,0-5l0,0v-12l0,0C36.7-17,55.8-9,74.7,0z"/>
		<path class="st1" d="M247.9,0c18.9-9,38-17,74.7-17v12c-18.4,0-32.7,2-44.7,5H247.9z"/>
		<path class="st1" d="M161.3-9.7c-39.2,0-58.3-9.2-78.5-18.9S41.4-48.4,0-48.4l0,0v-8.4c9.3,0,18.6-0.5,27.8-1.8
			c21.8,3.2,36,10,50.8,17c20.3,9.8,41.3,19.8,82.7,19.8s62.4-10.1,82.7-19.8c14.8-7.1,28.9-13.9,50.8-17c9.2,1.2,18.5,1.8,27.8,1.8
			v8.4c-41.4,0-62.4,10.1-82.7,19.8S200.5-9.7,161.3-9.7z"/>
		<path class="st2" d="M294.8-58.5c9.2,1.2,18.5,1.8,27.8,1.8v-9.7c-9.3,0.1-18.6-0.6-27.8-1.8c-8.5-1.2-16.9-3.2-25-6
			c-4.7-1.6-9.1-3.4-13.3-5.3c-4.1-1.8-8-3.7-12-5.6l-0.5-0.2c-3.6-1.7-7.1-3.4-10.8-5.1c-17.5-7.9-37.7-14.7-71.9-14.7
			s-54.4,6.9-71.8,14.8c-3.7,1.7-7.3,3.4-10.8,5.1L78-85.1c-4,1.9-7.9,3.8-12,5.6c-4.2,1.9-8.6,3.7-13.3,5.3c-8.1,2.8-16.5,4.8-25,6
			C18.5-67,9.3-66.4,0-66.5v9.7c9.3,0,18.6-0.5,27.8-1.8c21.8,3.2,36,10,50.8,17c20.3,9.8,41.3,19.8,82.7,19.8s62.4-10.1,82.7-19.8
			C258.8-48.6,273-55.4,294.8-58.5z M221-85.1c-15,6-32.5,10.4-59.8,10.4s-44.8-4.4-59.8-10.4c15-6,32.5-10.4,59.8-10.4
			S206.1-91.1,221-85.1z M244.7-74.2l-4.9,2.3C219.6-62.2,200.5-53,161.3-53S103-62.2,82.7-71.9l-4.9-2.3l4.9-2.3
			c2.2-1.1,4.4-2.1,6.6-3.2c17.5,7.9,37.7,14.8,71.9,14.8s54.4-6.9,71.9-14.7c2.2,1,4.4,2.1,6.6,3.2L244.7-74.2z M272-63.4
			c-12.4,3.7-22.4,8.5-32.2,13.2c-20.2,9.7-39.3,18.9-78.5,18.9S103-40.5,82.7-50.2c-9.8-4.7-19.8-9.5-32.2-13.2
			C55.8-65,61-66.9,66.1-69c4.2,1.9,8.3,3.8,12.4,5.8c20.3,9.8,41.3,19.8,82.7,19.8s62.4-10.1,82.7-19.8c4.1-2,8.2-3.9,12.5-5.8
			C261.5-66.9,266.7-65,272-63.4z"/>
		<path class="st2" d="M161.3,0c-41.4,0-62.4-10.1-82.7-19.8S39.2-38.7,0-38.7l0,0v-9.7l0,0c41.4,0,62.4,10.1,82.7,19.8
			s39.3,18.9,78.5,18.9s58.3-9.2,78.5-18.9s41.3-19.8,82.7-19.8v9.7c-39.2,0-58.3,9.2-78.5,18.9S202.7,0,161.3,0z"/>
		<path class="st2" d="M44.8,0H0v-5l0,0C18.4-5,32.7-3,44.8,0z"/>
		<path class="st2" d="M277.8,0c12-3,26.4-5,44.7-5v5H277.8z"/>
		<path class="st2" d="M82.7-6.9c4.9,2.4,9.8,4.7,14.9,6.9H74.7C55.8-9,36.7-17,0-17l0,0v-9.7l0,0C41.4-26.7,62.4-16.6,82.7-6.9z"/>
		<path class="st2" d="M224.9,0c5.1-2.2,10-4.5,14.9-6.9c20.3-9.8,41.3-19.8,82.7-19.8v9.7c-36.7,0-55.8,8-74.7,17H224.9z"/>
		<path class="st1" d="M78.6-196.7l3.2,1.5l-3.2,1.5C58.3-184,39.2-174.8,0-174.8v-12c33,0,53-6.4,70.1-13.9
			C72.9-199.4,75.7-198.1,78.6-196.7z"/>
		<path class="st1" d="M240.9-195.2l3.2-1.5c2.8-1.4,5.6-2.7,8.5-4c17,7.5,37.1,13.9,70,13.9v12c-39.2,0-58.3-9.2-78.5-18.9
			L240.9-195.2z"/>
		<path class="st1" d="M93.2-189.9c4.6,2,9.5,3.9,14.7,5.6c-11.1,3.6-20.4,8-29.5,12.4c-20.2,9.7-39.3,18.9-78.5,18.9v-12
			c41.4,0,62.4-10.1,82.7-19.8C86.2-186.7,89.7-188.3,93.2-189.9z"/>
		<path class="st1" d="M214.6-184.4c5.3-1.7,10.1-3.6,14.7-5.6c3.5,1.6,7,3.3,10.5,4.9c20.3,9.8,41.3,19.8,82.7,19.8v12
			c-39.2,0-58.3-9.2-78.5-18.9C234.9-176.4,225.7-180.8,214.6-184.4z"/>
		<path class="st1" d="M244-128.7c-20.3-9.8-41.3-19.8-82.7-19.8s-62.4,10.1-82.7,19.8c-14.8,7.1-28.9,13.9-50.8,17
			c-9.2,1.3-18.5,1.9-27.8,1.9v-12c41.4,0,62.4-10.1,82.7-19.8s39.3-18.9,78.5-18.9s58.3,9.2,78.5,18.9s41.3,19.8,82.7,19.8v12
			c-9.3,0.1-18.6-0.6-27.8-1.8C272.9-114.8,258.8-121.6,244-128.7z"/>
		<path class="st1" d="M269.8-95.9c-4.7-1.6-9.1-3.4-13.3-5.3s-8.3-3.8-12.5-5.8c-20.3-9.8-41.3-19.8-82.7-19.8S98.8-116.8,78.5-107
			c-4.1,2-8.2,3.9-12.4,5.8s-8.6,3.7-13.3,5.3c-8.1,2.8-16.5,4.8-25,6C18.6-88.7,9.3-88.1,0-88.1v-12c9.3,0,18.6-0.5,27.8-1.8
			c7.7-1,15.3-2.7,22.8-4.9c12.4-3.7,22.3-8.5,32.2-13.2c20.2-9.7,39.3-18.9,78.5-18.9s58.3,9.2,78.5,18.9
			c9.8,4.7,19.8,9.5,32.2,13.2c7.5,2.2,15.1,3.8,22.8,4.9c9.2,1.2,18.5,1.8,27.8,1.8v12c-9.3,0-18.6-0.6-27.8-1.9
			C286.3-91.2,277.9-93.2,269.8-95.9z"/>
		<path class="st1" d="M269.8-74.3c-4.7-1.6-9.1-3.4-13.3-5.3c-4.1-1.8-8-3.7-12-5.6l-0.5-0.2c-3.6-1.7-7.1-3.4-10.8-5.1
			c-17.5-7.9-37.7-14.7-71.9-14.7s-54.4,6.9-71.9,14.7c-3.7,1.7-7.3,3.4-10.8,5.1L78-85.1c-4,1.9-7.9,3.8-12,5.6
			c-4.2,1.9-8.6,3.7-13.3,5.3c-8.1,2.8-16.5,4.8-25,6C18.5-67,9.3-66.4,0-66.5v-12c9.3,0,18.6-0.5,27.8-1.8c7.7-1,15.3-2.7,22.8-4.9
			c5.3-1.6,10.5-3.4,15.5-5.6c4.1-1.7,7.9-3.5,11.7-5.3l4.9-2.3c20.2-9.7,39.3-18.9,78.5-18.9s58.3,9.2,78.6,18.9l4.9,2.3
			c3.8,1.8,7.6,3.6,11.7,5.3c5.1,2.1,10.3,4,15.5,5.6c7.5,2.2,15.1,3.8,22.8,4.9c9.2,1.2,18.5,1.8,27.8,1.8v12
			c-9.3,0.1-18.6-0.6-27.8-1.8C286.3-69.5,277.9-71.5,269.8-74.3z"/>
		<path class="st1" d="M161.3-170.2c-41.4,0-62.4,10.1-82.7,19.8S39.2-131.5,0-131.5v-12c41.4,0,62.4-10.1,82.7-19.8
			c13.5-6.5,26.6-12.7,45.4-16.2c10.9,1.8,22,2.7,33.1,2.6c11.1,0.1,22.2-0.8,33.1-2.6c18.9,3.4,31.9,9.7,45.4,16.2
			c20.3,9.8,41.3,19.8,82.7,19.8v12c-39.2,0-58.3-9.2-78.5-18.9S202.7-170.2,161.3-170.2z"/>
		<path class="st2" d="M194.4-179.5c-10.9,1.8-22,2.7-33.1,2.6c-11.1,0.1-22.2-0.8-33.1-2.6c-18.9,3.4-31.9,9.7-45.4,16.2
			c-20.3,9.8-41.3,19.8-82.7,19.8v-9.7c39.2,0,58.3-9.2,78.5-18.9c9.1-4.4,18.3-8.8,29.5-12.4c-5.3-1.7-10.1-3.6-14.7-5.6
			c-3.6,1.6-7,3.3-10.5,4.9c-20.3,9.8-41.3,19.8-82.7,19.8v-9.7c39.2,0,58.3-9.2,78.5-18.9l3.2-1.5l-3.2-1.5c-2.8-1.4-5.6-2.7-8.5-4
			C53-193.2,33-186.8,0-186.8v-9.7c26,0,43.1-4,57.6-9.6c-14.5-5.5-31.6-9.5-57.6-9.5l0,0v-9.7l0,0c33,0,53,6.4,70.1,13.9
			c3.9,1.7,7.7,3.5,11.4,5.3l1.3,0.6c3.5,1.7,7,3.3,10.5,4.9c4.1,1.9,8.4,3.6,12.9,5.3c7.2,2.6,14.5,4.6,22,5.9
			c10.9,1.9,22,2.8,33.1,2.7c11.1,0.1,22.2-0.8,33.1-2.7c7.5-1.4,14.8-3.3,22-5.9c4.5-1.6,8.7-3.4,12.9-5.3c3.5-1.6,7-3.3,10.5-4.9
			l1.3-0.6c3.7-1.8,7.5-3.6,11.4-5.3c17-7.5,37.1-13.9,70-13.9v9.7c-26,0-43.1,4-57.6,9.6c14.5,5.5,31.6,9.6,57.6,9.6v9.7
			c-33,0-53-6.4-70.1-13.9c-2.8,1.3-5.6,2.7-8.5,4l-3.2,1.5l3.1,1.5c20.2,9.7,39.3,18.9,78.5,18.9v9.7c-41.4,0-62.4-10.1-82.7-19.8
			c-3.5-1.7-7-3.3-10.5-4.9c-4.6,2-9.5,3.9-14.7,5.6c11.1,3.6,20.4,8,29.4,12.4c20.2,9.7,39.3,18.9,78.5,18.9v9.7
			c-41.4,0-62.4-10.1-82.7-19.8C226.3-169.8,213.3-176,194.4-179.5z"/>
		<path class="st2" d="M161.3-160.5c-39.2,0-58.3,9.2-78.5,18.9S41.4-121.8,0-121.8v-9.7c39.2,0,58.3-9.2,78.5-18.9
			s41.3-19.8,82.7-19.8s62.4,10.1,82.7,19.8s39.3,18.9,78.5,18.9v9.7c-41.4,0-62.4-10.1-82.7-19.8S200.5-160.5,161.3-160.5z"/>
		<path class="st2" d="M272-85.1c-5.3-1.6-10.5-3.4-15.5-5.6c-4.1-1.7-7.9-3.5-11.7-5.3l-4.9-2.3c-20.2-9.7-39.3-18.9-78.5-18.9
			S103-108,82.7-98.3l-4.9,2.3c-3.8,1.8-7.7,3.6-11.7,5.3c-5.1,2.1-10.3,4-15.5,5.6c-7.5,2.2-15.1,3.8-22.8,4.9
			C18.6-79,9.3-78.4,0-78.4v-9.7c9.3,0,18.6-0.6,27.8-1.9c8.5-1.2,16.9-3.2,25-6c4.7-1.6,9.1-3.4,13.3-5.3s8.3-3.7,12.4-5.7
			c20.3-9.8,41.3-19.8,82.7-19.8s62.4,10.1,82.7,19.8c4.1,2,8.2,3.9,12.5,5.8c4.2,1.9,8.6,3.7,13.3,5.3c8.1,2.8,16.5,4.8,25,6
			c9.2,1.3,18.5,1.9,27.8,1.8v9.6c-9.3,0-18.6-0.5-27.8-1.8C287.1-81.2,279.5-82.9,272-85.1z"/>
		<path class="st2" d="M272-106.8c-12.4-3.7-22.4-8.5-32.2-13.2c-20.2-9.7-39.3-18.9-78.5-18.9S103-129.7,82.7-120
			c-9.8,4.7-19.8,9.5-32.2,13.2c-7.5,2.2-15.1,3.8-22.8,4.9c-9.2,1.2-18.5,1.8-27.8,1.8v-9.7c9.3,0.1,18.6-0.6,27.8-1.8
			c21.8-3.2,36-9.9,50.8-17c20.3-9.8,41.3-19.8,82.7-19.8s62.4,10.1,82.7,19.8c14.8,7.1,28.9,13.9,50.8,17
			c9.2,1.3,18.5,1.9,27.8,1.8v9.7c-9.3,0-18.6-0.5-27.8-1.8C287.1-102.9,279.5-104.6,272-106.8z"/>
		<path class="st1" d="M161.3-229.9c-11.1,0.1-22.2-0.8-33.1-2.7c-10.5-1.9-20.7-5-30.5-9.3h127.3c-9.8,4.3-20,7.4-30.5,9.3
			C183.5-230.7,172.4-229.8,161.3-229.9z"/>
		<path class="st1" d="M229.3-222.2c-4.1,1.9-8.4,3.6-12.9,5.3c-7.2,2.6-14.5,4.6-22,5.9c-10.9,1.9-22,2.8-33.1,2.7
			c-11.1,0.1-22.2-0.8-33.2-2.8c-7.5-1.4-14.8-3.3-22-5.9c-4.5-1.6-8.7-3.4-12.9-5.3c-3.5-1.6-7-3.3-10.5-4.9
			c-11.3-5.4-22.8-11-38-14.8h29.9l3.8,1.8c9.1,4.4,18.3,8.8,29.4,12.4c6.6,2.1,13.3,3.7,20.2,4.9c10.9,1.8,22,2.7,33.1,2.6
			c11.1,0.1,22.2-0.8,33.1-2.6c6.8-1.2,13.6-2.8,20.2-4.9c11.1-3.6,20.4-8,29.4-12.4l3.9-1.8h29.9c-15.1,3.8-26.7,9.4-38,14.8
			C236.3-225.4,232.9-223.8,229.3-222.2z"/>
		<path class="st1" d="M241.1-206.1l-1.3,0.6c-3.5,1.7-7,3.4-10.5,4.9c-4.1,1.9-8.4,3.6-12.9,5.3c-7.2,2.6-14.5,4.6-22,5.9
			c-10.9,1.9-22,2.8-33.1,2.7c-11.1,0.1-22.2-0.8-33.1-2.7c-7.5-1.4-14.8-3.3-22-5.9c-4.5-1.6-8.7-3.4-12.9-5.3
			c-3.5-1.6-7-3.3-10.5-4.9l-1.3-0.6c-3.7-1.8-7.5-3.6-11.4-5.3C53-218.9,33-225.3,0-225.3l0,0v-12l0,0c39.2,0,58.3,9.2,78.5,18.9
			l3.2,1.5c3.8,1.8,7.6,3.6,11.6,5.3c4.6,2,9.5,3.9,14.7,5.6c6.6,2.1,13.3,3.7,20.2,4.9c10.9,1.8,22,2.7,33.1,2.6
			c11.1,0.1,22.2-0.8,33.1-2.6c6.8-1.2,13.6-2.8,20.2-4.9c5.3-1.7,10.1-3.6,14.7-5.6c4-1.7,7.8-3.5,11.6-5.3l3.1-1.5
			c20.2-9.7,39.3-18.9,78.5-18.9v12c-33,0-53,6.4-70.1,13.9C248.6-209.6,244.8-207.8,241.1-206.1z"/>
		<path class="st2" d="M240.9-216.9c-3.8,1.8-7.6,3.6-11.6,5.3c-4.6,2-9.5,3.9-14.7,5.6c-6.6,2.1-13.3,3.7-20.2,4.9
			c-10.9,1.8-22,2.7-33.1,2.6c-11.1,0.1-22.2-0.8-33.1-2.6c-6.8-1.2-13.6-2.8-20.2-4.9c-5.3-1.7-10.1-3.6-14.7-5.6
			c-4-1.7-7.8-3.5-11.6-5.3l-3.2-1.5c-20.2-9.7-39.3-18.9-78.5-18.9l0,0v-4.6h44.8c15.2,3.8,26.7,9.4,38,14.8
			c3.5,1.7,7,3.3,10.5,4.9c4.1,1.9,8.4,3.6,12.9,5.3c7.2,2.6,14.5,4.6,22,5.9c10.9,1.9,22,2.8,33.1,2.7c11.1,0.1,22.2-0.8,33.1-2.8
			c7.5-1.4,14.8-3.3,22-5.9c4.5-1.6,8.7-3.4,12.9-5.3c3.5-1.6,7-3.3,10.5-4.9c11.3-5.4,22.8-11,38-14.8h44.7v4.6
			c-39.2,0-58.3,9.2-78.5,18.9L240.9-216.9z"/>
		<path class="st2" d="M214.6-227.7c-6.6,2.1-13.3,3.7-20.2,4.9c-10.9,1.8-22,2.7-33.1,2.6c-11.1,0.1-22.2-0.8-33.1-2.6
			c-6.8-1.2-13.6-2.8-20.2-4.9c-11.1-3.6-20.3-8-29.4-12.4l-3.8-1.8h22.9c9.8,4.3,20,7.4,30.5,9.3c10.9,1.9,22,2.8,33.1,2.7
			c11.1,0.1,22.2-0.8,33.1-2.7c10.5-1.9,20.8-5,30.5-9.3h22.9l-3.9,1.8C234.9-235.7,225.7-231.3,214.6-227.7z"/>
	</g>
</pattern>
<title>waves</title>
<g id="Layer_2">
	<g id="BACKGROUND">
		<pattern  id="SVGID_1_" xlink:href="#Nueva_muestra_de_motivo_4" patternTransform="matrix(1 0 0 -1 -229.74 -16986.6289)">
		</pattern>
		<rect class="st3" width="800" height="800"/>
		
			<linearGradient id="SVGID_2_" gradientUnits="userSpaceOnUse" x1="9.094947e-13" y1="-100" x2="800" y2="-100" gradientTransform="matrix(6.123234e-17 1 1 -6.123234e-17 500 0)">
			<stop  offset="0" style="stop-color:#FFFFFF"/>
			<stop  offset="1" style="stop-color:#FFFFFF;stop-opacity:0"/>
		</linearGradient>
		<rect class="st4" width="800" height="800"/>
	</g>
</g>
</svg>
